<?xml version="1.0" encoding="UTF-8"?>
<svg version="1.1" xmlns="http://www.w3.org/2000/svg" viewBox="80 306 800 800">
<path d="M0 0 C11.90900769 0 22.45222883 0.06674085 34 2 C36.70741101 9.34756919 38.10983633 16.59831854 39.375 24.3125 C41.37417141 36.04323909 43.89109854 47.51690864 47 59 C47.62229492 59.12004395 48.24458984 59.24008789 48.88574219 59.36376953 C66.24884535 62.75037112 83.3686107 66.67327551 99.80859375 73.3359375 C102.55950665 74.16954747 104.14288044 74.55061333 107 74 C109.15428065 71.93899128 110.91367621 70.00365669 112.75 67.6875 C113.27513184 67.05030029 113.80026367 66.41310059 114.34130859 65.7565918 C115.90882993 63.84908296 117.45630698 61.9268142 119 60 C120.54032304 58.10307484 122.08184443 56.20712161 123.625 54.3125 C124.33269531 53.43980469 125.04039062 52.56710937 125.76953125 51.66796875 C128.97260085 47.83662631 132.34407289 44.16984085 135.73828125 40.5078125 C137.93037456 38.07720126 139.98235414 35.57630752 142 33 C145.85802289 33.60584476 148.86230997 34.76235829 152.32421875 36.5546875 C153.34427002 37.08167236 154.36432129 37.60865723 155.4152832 38.15161133 C157.03503052 39.00468872 157.03503052 39.00468872 158.6875 39.875 C159.8014917 40.45854248 160.9154834 41.04208496 162.06323242 41.64331055 C171.63002833 46.70614391 180.90334076 52.13833726 190 58 C190.57524414 58.36963867 191.15048828 58.73927734 191.74316406 59.12011719 C194.26378882 60.74899024 196.75687343 62.40801975 199.2265625 64.11328125 C201.18100383 65.4428519 203.18159467 66.70579438 205.2109375 67.91796875 C206.23445312 68.56378906 207.25796875 69.20960938 208.3125 69.875 C209.23675781 70.42929687 210.16101563 70.98359375 211.11328125 71.5546875 C213.26873469 74.34829797 213.29040081 74.98948265 213.08984375 78.390625 C212.05331377 85.16129599 209.63136278 91.48110977 207.25 97.875 C206.60417969 99.65970703 206.60417969 99.65970703 205.9453125 101.48046875 C203.49399937 108.19589244 200.86788204 114.77672817 197.90917969 121.28564453 C196.87581055 124.37076752 196.73602714 126.76633245 197 130 C198.41696838 132.17780412 198.41696838 132.17780412 200.5 133.9375 C201.23734375 134.62328125 201.9746875 135.3090625 202.734375 136.015625 C204.72443922 137.75864676 206.73313492 139.47570695 208.75 141.1875 C215.81650385 147.27216085 221.87011601 154.49684618 228.07421875 161.4375 C228.56623779 161.9838208 229.05825684 162.5301416 229.56518555 163.09301758 C230.92378673 164.60280562 232.2746311 166.11956322 233.625 167.63671875 C236.44113846 170.48634147 236.44113846 170.48634147 240 172 C242.581963 171.38477917 244.83816868 170.68276004 247.30078125 169.74609375 C248.3709272 169.36010765 248.3709272 169.36010765 249.46269226 168.96632385 C251.75140764 168.13751974 254.03186136 167.28824696 256.3125 166.4375 C257.80481433 165.89114417 259.29764919 165.34620789 260.79101562 164.80273438 C263.01269482 163.99388522 265.23435955 163.18502663 267.45510864 162.37362671 C272.38727483 160.57451686 277.32672684 158.80067528 282.29296875 157.09765625 C283.46754639 156.69168213 284.64212402 156.28570801 285.85229492 155.86743164 C288.78978231 155.05793093 290.98249709 154.65109392 294 155 C297.80259381 158.81010881 300.51652786 163.76119245 303.375 168.3125 C303.89102783 169.13282715 304.40705566 169.9531543 304.9387207 170.79833984 C313.48257077 184.4832945 321.64297778 198.43061317 329.3125 212.625 C329.67947998 213.29289551 330.04645996 213.96079102 330.42456055 214.64892578 C332.42429994 218.42409828 333.54874335 221.74903154 334 226 C333.34515625 226.52207031 332.6903125 227.04414062 332.015625 227.58203125 C326.85531995 231.7438027 321.85088559 235.98478014 317 240.5 C312.35873936 244.81783568 307.56440519 248.87419263 302.625 252.8515625 C298.64083135 256.11241482 294.81446578 259.54343471 291 263 C292.21183246 268.95325716 293.80228877 274.6263782 295.75 280.375 C298.44446588 288.60349725 300.49438797 296.92582429 302.375 305.375 C302.63764648 306.54595215 302.90029297 307.7169043 303.17089844 308.92333984 C304.20902787 313.70361237 305.15785053 318.08872159 305 323 C311.9191717 324.29759656 318.85457036 325.49032737 325.796875 326.65625 C327.59765809 326.9596245 329.39843931 327.26301012 331.19921875 327.56640625 C333.98552244 328.0356318 336.77200205 328.50366765 339.55908203 328.96826172 C342.2848076 329.42310614 345.00964172 329.88300354 347.734375 330.34375 C348.56056335 330.48026978 349.38675171 330.61678955 350.23797607 330.75744629 C354.94116272 331.5577062 359.43823305 332.59989901 364 334 C364.92378698 341.53534947 365.14663962 348.96406278 365.1328125 356.55078125 C365.13424759 358.31448311 365.13424759 358.31448311 365.13571167 360.11381531 C365.13638878 362.58881687 365.13456737 365.06382026 365.13037109 367.53881836 C365.12503075 371.29089427 365.13032471 375.04284971 365.13671875 378.79492188 C365.1360576 381.21354193 365.13477569 383.6321619 365.1328125 386.05078125 C365.13483673 387.15537186 365.13686096 388.25996246 365.13894653 389.39802551 C365.07699895 410.38450158 365.07699895 410.38450158 362 415 C359.09712295 415.79469824 356.31628366 416.40949554 353.36328125 416.9375 C352.49164841 417.1037085 351.62001556 417.26991699 350.7219696 417.44116211 C347.92089258 417.97261148 345.11694342 418.48664262 342.3125 419 C340.47308719 419.34518336 338.63389139 419.69152524 336.79492188 420.0390625 C333.2139959 420.71480413 329.63205727 421.38473469 326.04931641 422.05078125 C319.35294454 423.30159944 312.67511016 424.64064867 306 426 C305.81993408 426.93344238 305.81993408 426.93344238 305.63623047 427.88574219 C302.18210773 445.5950262 297.8425078 462.7543319 291.56640625 479.6875 C290.91946865 482.32879005 290.91196049 483.51522139 292 486 C293.68966374 487.90982315 293.68966374 487.90982315 295.875 489.6875 C297.10476563 490.739375 297.10476563 490.739375 298.359375 491.8125 C301.85400812 494.70746235 305.36997009 497.57516968 308.89453125 500.43359375 C313.24106342 503.995038 317.46437525 507.70078831 321.69775391 511.39526367 C322.59953369 512.18187378 322.59953369 512.18187378 323.51953125 512.984375 C324.09912598 513.49677734 324.6787207 514.00917969 325.27587891 514.53710938 C326.97450319 516.01630533 326.97450319 516.01630533 328.78271484 517.29101562 C330.44921875 518.515625 330.44921875 518.515625 333 521 C333.56070043 525.7515927 332.49140829 528.71821852 330.2890625 532.89453125 C329.70882324 534.00634766 329.12858398 535.11816406 328.53076172 536.26367188 C327.89619763 537.44698477 327.26092864 538.62991988 326.625 539.8125 C325.97750566 541.03553125 325.33053667 542.25884076 324.68408203 543.48242188 C315.6536596 560.49428255 305.68413261 576.97380108 295 593 C287.86402648 592.49487492 281.88662379 590.81082957 275.19921875 588.33203125 C273.15048347 587.59674645 271.10165255 586.86172811 269.05273438 586.12695312 C265.85349338 584.96644172 262.65615208 583.80101343 259.46069336 582.63012695 C256.35718846 581.49703364 253.24752846 580.38238184 250.13671875 579.26953125 C249.17940353 578.91236526 248.22208832 578.55519928 247.23576355 578.18721008 C245.89835869 577.71132698 245.89835869 577.71132698 244.53393555 577.22583008 C243.75277878 576.94016678 242.97162201 576.65450348 242.16679382 576.36018372 C239.42306556 575.90409683 238.30779146 576.52140101 236 578 C232.32748018 581.16744134 229.10541486 584.83609847 225.9375 588.5 C203.76610825 614.11694588 203.76610825 614.11694588 196 618 C196.5947961 622.57854675 197.83226923 626.37804957 199.625 630.625 C202.5303015 637.64517537 205.07787238 644.76330153 207.55126953 651.94580078 C207.82696777 652.74614746 208.10266602 653.54649414 208.38671875 654.37109375 C208.65274902 655.15210449 208.9187793 655.93311523 209.19287109 656.73779297 C209.71590585 658.2037458 210.27434786 659.65772945 210.87353516 661.09423828 C212.90212873 665.97023091 213.8109831 669.70955994 213 675 C210.8254437 677.11929852 209.26019424 678.2935814 206.6875 679.75 C206.0181543 680.16064697 205.34880859 680.57129395 204.65917969 680.99438477 C203.20899172 681.883065 201.75178274 682.7603667 200.28857422 683.62744141 C197.97583922 685.01449028 195.70659097 686.45470483 193.44140625 687.91796875 C180.01046971 696.58413408 166.29411599 704.84095117 152.125 712.25 C151.05507813 712.81203125 149.98515625 713.3740625 148.8828125 713.953125 C145.62027952 715.13789307 144.22713549 715.21151598 141 714 C135.3308539 709.69052715 130.93174916 703.59082318 126.5 698.07421875 C123.15878076 693.96556322 119.70704568 689.95713821 116.24902344 685.94677734 C115.29528694 684.840071 114.34308789 683.73203749 113.39257812 682.62255859 C112.44348299 681.516723 111.4888072 680.41565843 110.52929688 679.31884766 C107 675.222431 107 675.222431 107 673 C106.30253662 673.24121582 105.60507324 673.48243164 104.88647461 673.73095703 C68.51201373 686.24760454 68.51201373 686.24760454 54.19970703 688.42626953 C53.29978027 688.56532715 52.39985352 688.70438477 51.47265625 688.84765625 C50.6619165 688.95215088 49.85117676 689.05664551 49.01586914 689.16430664 C46.77579491 689.82943213 46.77579491 689.82943213 45.93685913 692.23187256 C45.03992714 694.88202772 44.45755759 697.36965259 43.99438477 700.12573242 C43.82403214 701.11993698 43.6536795 702.11414154 43.47816467 703.13847351 C43.30103439 704.20008194 43.12390411 705.26169037 42.94140625 706.35546875 C42.551851 708.60879638 42.16186415 710.86204944 41.77148438 713.11523438 C41.16295743 716.6631264 40.55845069 720.21158691 39.96166992 723.76147461 C39.38283011 727.19067995 38.78825754 730.61685929 38.19140625 734.04296875 C38.0163002 735.11064987 37.84119415 736.17833099 37.66078186 737.27836609 C37.48727707 738.26311417 37.31377228 739.24786224 37.13500977 740.26245117 C36.98781998 741.13117355 36.84063019 741.99989594 36.6889801 742.89494324 C36 745 36 745 33 747 C22.07706157 749.57197097 11.22128828 749 0 749 C0 712.37 0 675.74 0 638 C2.84605353 637.28848662 5.13238776 636.82977344 7.9921875 636.60546875 C25.70275564 635.09498037 43.0208631 632.34602542 60 627 C61.175625 626.66613281 62.35125 626.33226562 63.5625 625.98828125 C101.06116092 615.03836489 134.7463704 594.60806759 164 569 C164.51594727 568.54866699 165.03189453 568.09733398 165.56347656 567.63232422 C211.63305698 527.04721766 242.30065307 466.94244624 249 406 C249.0920874 405.23349121 249.1841748 404.46698242 249.27905273 403.67724609 C252.07002511 377.70339894 250.91840534 350.60934489 246 325 C245.82871582 324.08557129 245.65743164 323.17114258 245.48095703 322.22900391 C236.09196853 273.9131428 212.12914868 228.35041364 178 193 C177.3507959 192.32356445 176.7015918 191.64712891 176.03271484 190.95019531 C167.43272138 182.02974275 158.73386356 173.63590476 148.74462891 166.28710938 C146.92369199 164.94370336 145.12359299 163.5752484 143.32421875 162.203125 C101.10587501 130.27106524 51.8060992 116.4757624 0 110 C0 73.7 0 37.4 0 0 Z " fill="#8a56ac" transform="translate(470,323)"/>
<path d="M0 0 C0 17.49 0 34.98 0 53 C-8.415 53.495 -8.415 53.495 -17 54 C-20.6992811 54.52705477 -24.28659289 55.08316134 -27.9375 55.8125 C-28.86731689 55.99208252 -29.79713379 56.17166504 -30.75512695 56.35668945 C-32.63153151 56.72311077 -34.5068281 57.09526075 -36.38085938 57.47363281 C-38.73518599 57.94678048 -41.09278912 58.39404325 -43.453125 58.8359375 C-88.64216155 67.67195696 -129.72619028 90.79415951 -164 121 C-164.91394531 121.79148437 -165.82789063 122.58296875 -166.76953125 123.3984375 C-171.25183775 127.33641593 -175.38995578 131.35887275 -179.234375 135.921875 C-181.20052556 138.23601681 -183.25347972 140.4556948 -185.3125 142.6875 C-232.01466135 194.68415342 -252.92429695 264.93747343 -249.87109375 333.91210938 C-249.52416363 339.98338648 -248.83976766 345.97882327 -248 352 C-247.86529297 353.01610352 -247.73058594 354.03220703 -247.59179688 355.07910156 C-243.97271775 381.32917549 -235.89239116 407.28828058 -224 431 C-223.62552734 431.75845215 -223.25105469 432.5169043 -222.86523438 433.29833984 C-190.57653239 498.2588749 -133.47066264 544.68186653 -65.1328125 567.66015625 C-55.96643007 570.62501134 -46.70020258 572.82970742 -37.25 574.6875 C-35.80814331 574.97306763 -35.80814331 574.97306763 -34.3371582 575.2644043 C-22.93648092 577.38543902 -11.55586154 578.55551731 0 580 C0 597.82 0 615.64 0 634 C-88.94210009 628.44111874 -166.6923295 589.80208101 -226.61669922 524.23095703 C-229.21441119 521.25567624 -231.61941805 518.14976794 -234 515 C-234.74378906 514.07316406 -235.48757812 513.14632812 -236.25390625 512.19140625 C-273.80484139 464.87602249 -295.72280164 408.73819553 -303 349 C-303.1045752 348.17725586 -303.20915039 347.35451172 -303.31689453 346.50683594 C-304.39282526 336.71759858 -304.24391135 326.83564545 -304.25 317 C-304.25067474 316.02090668 -304.25134949 315.04181335 -304.25204468 314.03305054 C-304.18930084 256.59311902 -288.20672862 202.32976255 -259 153 C-258.53916016 152.22043945 -258.07832031 151.44087891 -257.60351562 150.63769531 C-252.00441451 141.24308992 -245.83815622 132.52798066 -239 124 C-238.31035156 123.11699219 -237.62070313 122.23398437 -236.91015625 121.32421875 C-232.18879046 115.31265795 -227.16444748 109.6324233 -222 104 C-221.12085938 103.02804687 -220.24171875 102.05609375 -219.3359375 101.0546875 C-206.91012532 87.34139744 -193.70674336 75.22062021 -179 64 C-178.34273926 63.49694336 -177.68547852 62.99388672 -177.00830078 62.47558594 C-163.98185466 52.5831109 -150.18161294 44.12897296 -136 36 C-135.16355957 35.51901855 -134.32711914 35.03803711 -133.46533203 34.54248047 C-105.5939158 18.70499233 -75.29026365 9.18902048 -43.87011719 3.52001953 C-40.54484254 2.91753272 -37.22828716 2.27386866 -33.91259766 1.62084961 C-21.99503346 -0.36541109 -12.75867551 0 0 0 Z " fill="#8a56ac" transform="translate(444,381)"/>
<path d="M0 0 C4.45528921 2.41328166 6.18719753 5.33960569 8 10 C8.41087005 13.89529543 8.34501166 17.76440524 8.28955078 21.67749023 C8.2852858 22.84730438 8.28102081 24.01711853 8.27662659 25.22238159 C8.26633672 27.75799689 8.24964915 30.29359251 8.22729874 32.82913017 C8.19503354 36.8432995 8.18549551 40.85684683 8.18502808 44.87110901 C8.18007758 56.2825849 8.15088912 67.69360839 8.05859375 79.10473633 C8.00780811 85.41414926 7.98922686 91.72281077 8.0061816 98.03241497 C8.01369396 101.36764727 7.99928951 104.69938869 7.95492935 108.03457451 C7.90684632 111.75532509 7.91423529 115.47219425 7.93408203 119.19311523 C7.90636215 120.2899614 7.87864227 121.38680756 7.8500824 122.51689148 C7.92530107 128.38765346 7.92530107 128.38765346 10.99917221 133.18629646 C13.37971994 135.08268799 13.37971994 135.08268799 15.85815239 136.61375523 C18.60860406 138.3939002 19.95331584 140.39043278 21.5 143.25 C21.9640625 144.08015625 22.428125 144.9103125 22.90625 145.765625 C24.57909057 149.18299932 25.06184621 150.66286272 24.359375 154.4921875 C23.32335685 160.91684064 23.07143268 166.25030191 26.94384766 171.77148438 C32.04410027 177.53899412 37.74267693 182.62875688 43.5090332 187.71606445 C46.23247055 190.21314927 48.56235014 192.86616276 50.93774414 195.68652344 C53.72140792 198.80928867 56.68737065 201.72635086 59.66796875 204.66015625 C60.27431656 205.25854309 60.88066437 205.85692993 61.50538635 206.47344971 C64.03845884 208.97036767 66.57444433 211.46416077 69.11987305 213.94848633 C70.99695446 215.78302089 72.86426865 217.62706224 74.73046875 219.47265625 C75.30033005 220.02389664 75.87019135 220.57513702 76.45732117 221.14308167 C80.72746199 225.38578955 84.40923625 229.79858174 85.53125 235.87890625 C85.46372485 241.67762832 85.24672391 245.64438573 81 250 C76.27842491 252.67258967 72.3902427 253.85109095 67 253 C60.32009288 249.05588964 54.91261098 243.18977074 49.49609375 237.7265625 C48.6139772 236.84398773 47.73186066 235.96141296 46.82301331 235.05209351 C44.49584248 232.72115101 42.17332087 230.38569964 39.85266113 228.04827881 C37.50643333 225.68859253 35.15189681 223.33723901 32.79882812 220.984375 C30.98911138 219.16974139 29.17985127 217.35465223 27.37109375 215.5390625 C26.53549423 214.70235016 25.69989471 213.86563782 24.838974 213.00357056 C13.74547689 201.82099249 13.74547689 201.82099249 9.47727966 195.88076782 C7.79498486 193.54101073 6.57207716 192.34687891 4 191 C0.46503837 190.79291592 -2.91592865 190.87463673 -6.44433594 191.04907227 C-15.46257852 191.35379559 -22.29032468 187.74242144 -28.9375 181.75 C-35.22424871 174.86378136 -38.44147638 166.33620875 -38.34375 157.11328125 C-37.42247857 148.76949339 -33.36285392 140.54044423 -27 135 C-25.98910309 134.54522781 -24.97820618 134.09045563 -23.93667603 133.62190247 C-20.61224292 130.65380545 -20.54532929 130.18978345 -20.26742554 125.97245789 C-20.24444 123.83160165 -20.25471242 121.69024059 -20.29052734 119.54956055 C-20.2842205 117.7952774 -20.2842205 117.7952774 -20.27778625 116.0055542 C-20.27006434 112.13208765 -20.30370251 108.2600406 -20.3359375 104.38671875 C-20.33857626 101.69633054 -20.33102077 99.00600349 -20.32315063 96.31562805 C-20.30630473 88.49866004 -20.33438218 80.6821583 -20.36656952 72.86526489 C-20.40504417 62.92647806 -20.42112554 52.98777039 -20.40136492 43.0489257 C-20.39380236 38.41192336 -20.41951609 33.77577014 -20.45175171 29.13883972 C-20.45243669 26.70543423 -20.45213339 24.2720282 -20.45068359 21.83862305 C-20.46514023 20.7386348 -20.47959686 19.63864655 -20.49449158 18.50532532 C-20.46163311 12.09921839 -19.80375516 8.21688085 -16 3 C-11.59654201 -1.13658175 -5.69539799 -0.76338919 0 0 Z " fill="#8a56ac" transform="translate(463,538)"/>
<path d="M0 0 C1.83704312 -0.01653825 3.67402246 -0.04380029 5.51074219 -0.08203125 C8.16391264 -0.13695737 10.81557491 -0.15869864 13.46923828 -0.17333984 C14.69299164 -0.2073439 14.69299164 -0.2073439 15.94146729 -0.24203491 C20.1088476 -0.22668774 22.72005803 0.08879864 26.01904297 2.7578125 C29.40329866 6.27111197 29.91634115 8.33007774 29.87158203 13.24462891 C29.23658101 17.00578881 27.23989009 18.75300814 24.51611328 21.35009766 C18.65627144 23.30337827 11.959908 22.65716945 5.8112793 22.70019531 C4.07806971 22.71674689 2.34492817 22.74402675 0.61206055 22.78222656 C-1.89553992 22.83717065 -4.40154557 22.85889372 -6.90966797 22.87353516 C-8.06309441 22.90753922 -8.06309441 22.90753922 -9.23982239 22.94223022 C-13.2950139 22.92641179 -15.75332181 22.53523473 -18.95727539 19.94238281 C-22.68293173 16.11988605 -22.81838292 13.76952585 -22.77685547 8.61181641 C-22.34732871 5.29586986 -20.87464318 3.60022138 -18.48388672 1.35009766 C-13.45506543 -1.16431299 -5.59586181 0.0369265 0 0 Z " fill="#8a56ac" transform="translate(671.48388671875,685.64990234375)"/>
<path d="M0 0 C1.78854404 -0.01653657 3.57702261 -0.04379646 5.36523438 -0.08203125 C7.94891511 -0.13697269 10.53104709 -0.15870078 13.11523438 -0.17333984 C13.90919617 -0.19600922 14.70315796 -0.21867859 15.5211792 -0.24203491 C19.63726345 -0.22647409 22.17717231 0.12363296 25.43261719 2.7578125 C28.83295155 6.26858168 29.34366602 8.32142825 29.29882812 13.24462891 C28.6638271 17.00578881 26.66713619 18.75300814 23.94335938 21.35009766 C18.08351754 23.30337827 11.38715409 22.65716945 5.23852539 22.70019531 C3.50531581 22.71674689 1.77217426 22.74402675 0.03930664 22.78222656 C-2.46829383 22.83717065 -4.97429947 22.85889372 -7.48242188 22.87353516 C-8.63584831 22.90753922 -8.63584831 22.90753922 -9.81257629 22.94223022 C-13.8677678 22.92641179 -16.32607572 22.53523473 -19.5300293 19.94238281 C-22.9503519 16.43315628 -23.4519613 14.38911045 -23.41601562 9.45556641 C-22.78082249 5.73416313 -20.71685046 3.94696916 -18.05664062 1.35009766 C-13.11949386 -1.11847573 -5.49176836 0.03721528 0 0 Z " fill="#8a56ac" transform="translate(236.056640625,685.64990234375)"/>
<path d="M0 0 C5.5 3 5.5 3 7 6 C7.12355235 8.85836493 7.188432 11.69137464 7.203125 14.55078125 C7.20882507 15.40173874 7.21452515 16.25269623 7.22039795 17.12944031 C7.22985298 18.93255366 7.23638392 20.73568433 7.24023438 22.53881836 C7.24992487 25.29116198 7.28093675 28.04275408 7.3125 30.79492188 C7.31903163 32.54687057 7.32428147 34.2988246 7.328125 36.05078125 C7.3404718 36.87177811 7.3528186 37.69277496 7.36553955 38.53865051 C7.34747101 43.19848586 6.98925368 46.19453493 4 50 C0.57234748 52.57073939 -2.83971296 52.43037452 -7 52 C-10.6266863 50.22087087 -12.52526721 49.09748421 -14.14477539 45.35351562 C-15.12157096 41.52329469 -15.34167373 37.89561869 -15.37109375 33.96875 C-15.38012222 33.21460815 -15.3891507 32.46046631 -15.39845276 31.68347168 C-15.4128914 30.09680108 -15.42182602 28.5100718 -15.42553711 26.92333984 C-15.43746808 24.50646582 -15.48673827 22.09212019 -15.53710938 19.67578125 C-15.54657163 18.12761652 -15.55380761 16.57943625 -15.55859375 15.03125 C-15.57812607 14.31545776 -15.59765839 13.59966553 -15.61778259 12.86218262 C-15.56681123 7.15170087 -13.90243667 4.85792777 -10 1 C-6.78918322 -0.60540839 -3.48289645 -0.48463309 0 0 Z " fill="#8a56ac" transform="translate(461,454)"/>
<path d="M0 0 C3.98066095 1.57724302 5.60667274 2.41000911 8 6 C8.23251956 8.9030669 8.35206324 11.70772431 8.37109375 14.61328125 C8.38463646 15.88403755 8.38463646 15.88403755 8.39845276 17.1804657 C8.41295891 18.97338324 8.42184291 20.76635376 8.42553711 22.55932617 C8.43741275 25.2924211 8.48657383 28.02324242 8.53710938 30.75585938 C8.54657642 32.49998901 8.55381011 34.24413248 8.55859375 35.98828125 C8.57812607 36.80097977 8.59765839 37.61367828 8.61778259 38.45100403 C8.58513914 42.59028578 8.24693628 45.22372033 5.62133789 48.51782227 C3 51 3 51 0.5 51.7265625 C-3.67314418 51.55702852 -6.33051859 51.39053082 -10 49.25 C-13.97492764 44.77820641 -14.31796891 41.02629549 -14.3359375 35.1640625 C-14.3425943 34.40709076 -14.3492511 33.65011902 -14.35610962 32.87020874 C-14.36621599 31.27157005 -14.37092726 29.67288935 -14.37060547 28.07421875 C-14.37497325 25.63991048 -14.41129544 23.20742457 -14.44921875 20.7734375 C-14.45508865 19.216152 -14.45905688 17.65885793 -14.4609375 16.1015625 C-14.47530853 15.37949615 -14.48967957 14.65742981 -14.50448608 13.91348267 C-14.45874891 8.80431816 -13.23200271 5.92065834 -10 2 C-6.25816125 -0.49455917 -4.43756964 -0.37606522 0 0 Z " fill="#8a56ac" transform="translate(460,889)"/>
<path d="M0 0 C4.4121773 0.77406619 6.63323987 2.37837191 9.5625 5.625 C12.04391111 9.19931045 14.26702652 12.89306102 16.42382812 16.67114258 C17.43617304 18.43518774 18.47822384 20.17910645 19.5234375 21.92382812 C25.72793686 32.66475211 25.72793686 32.66475211 24.5625 39.625 C22.76886089 42.4350346 21.54369065 44.13440468 18.5625 45.625 C14.77427446 45.98237977 12.41292721 46.15857449 9.140625 44.10546875 C5.86510886 40.9540252 3.84243047 37.56429718 1.625 33.625 C1.19405029 32.87041504 0.76310059 32.11583008 0.3190918 31.33837891 C-0.94565256 29.10736892 -2.1923061 26.86696242 -3.4375 24.625 C-3.78619141 24.01366211 -4.13488281 23.40232422 -4.49414062 22.77246094 C-7.19200343 18.02784886 -9.36284793 14.19269339 -9.625 8.6875 C-7.64143596 3.57199274 -5.50014332 1.00002606 0 0 Z " fill="#8a56ac" transform="translate(559.4375,863.375)"/>
<path d="M0 0 C3.125 2.0625 3.125 2.0625 5 5 C5.52335168 8.66346179 5.42476319 11.00350233 3.97265625 14.41015625 C1.21357908 18.03246945 -2.11624351 19.7637363 -6.0625 21.9375 C-7.60592563 22.80908727 -9.14889686 23.68147972 -10.69140625 24.5546875 C-11.43535645 24.97202148 -12.17930664 25.38935547 -12.94580078 25.81933594 C-15.52862377 27.30382987 -18.00734024 28.93222964 -20.5 30.5625 C-24.77587725 33.11200092 -28.95726862 34.80564347 -34 34 C-37 31.625 -37 31.625 -39 29 C-39.33 28.67 -39.66 28.34 -40 28 C-40.61400736 23.61423315 -40.27313576 21.46091659 -38 17.625 C-33.54126556 12.88892801 -27.52242756 10.10717288 -21.84375 7.08984375 C-18.94636137 5.54869438 -16.28707777 3.86314232 -13.625 1.9375 C-9.3373535 -0.79100232 -4.91851784 -1.03769759 0 0 Z " fill="#8a56ac" transform="translate(285,789)"/>
<path d="M0 0 C4.10007872 0.38679988 6.11398775 1.78344381 9.3125 4.3125 C10.89148053 7.47046107 11.13178171 10.91920636 10.3125 14.3125 C6.72316527 18.61422178 2.41998991 21.38035851 -2.3125 24.25 C-3.36993408 24.89751221 -3.36993408 24.89751221 -4.44873047 25.55810547 C-6.52233931 26.81983013 -8.60353829 28.06796873 -10.6875 29.3125 C-11.7703125 29.96605469 -12.853125 30.61960937 -13.96875 31.29296875 C-22.04685471 35.96451007 -22.04685471 35.96451007 -27.6875 35.3125 C-30.99132019 33.13714514 -33.09224858 30.03435722 -34.37890625 26.3125 C-34.67010879 23.94590159 -34.47375785 22.5697527 -33.6875 20.3125 C-28.06403216 14.60781797 -20.63642754 10.77641801 -13.6875 6.9375 C-11.81181379 5.88924776 -9.93677627 4.83983364 -8.0625 3.7890625 C-6.83660156 3.109646 -6.83660156 3.109646 -5.5859375 2.41650391 C-1.78806182 0.20791417 -1.78806182 0.20791417 0 0 Z " fill="#8a56ac" transform="translate(658.6875,570.6875)"/>
<path d="M0 0 C0.74636719 0.103125 1.49273437 0.20625 2.26171875 0.3125 C4.71208149 1.13395494 5.65564126 2.03142429 7.3125 4 C8.82472208 8.00423044 8.79746345 11.65046122 7.35498047 15.66455078 C5.93093135 18.54181567 4.38204225 21.29809781 2.75 24.0625 C2.22341797 25.00416016 1.69683594 25.94582031 1.15429688 26.91601562 C-7.85600411 42.76399912 -7.85600411 42.76399912 -13.6875 45 C-17.96335689 44.92225715 -20.14195271 44.39465123 -23.625 41.875 C-26.2544401 38.20971987 -26.07106385 36.44922386 -25.6875 32 C-24.40576172 28.80615234 -24.40576172 28.80615234 -22.6171875 25.5859375 C-22.29847687 25.00840729 -21.97976624 24.43087708 -21.65139771 23.83584595 C-20.9776043 22.62350985 -20.29647131 21.41522654 -19.60839844 20.2109375 C-18.56714936 18.38316133 -17.55580528 16.54108456 -16.546875 14.6953125 C-7.66705619 -1.28453297 -7.66705619 -1.28453297 0 0 Z " fill="#8a56ac" transform="translate(355.6875,864)"/>
<path d="M0 0 C3.93204888 1.643368 7.45816864 3.80081304 11.0625 6.0625 C12.00416016 6.62388672 12.94582031 7.18527344 13.91601562 7.76367188 C29.0603912 16.98519493 29.0603912 16.98519493 30.63208008 22.02807617 C30.83737961 25.67883747 30.07372288 27.88450082 28.125 30.9375 C25.44994307 33.53387878 24.56242988 33.94396455 20.82421875 34.31640625 C16.32060719 33.94378875 13.48941665 32.36139733 9.8125 29.9375 C8.50060876 29.10841096 7.18809978 28.28029865 5.875 27.453125 C5.22660156 27.03869141 4.57820312 26.62425781 3.91015625 26.19726562 C0.18363358 23.86152084 -3.6753793 21.75445558 -7.51171875 19.60546875 C-13.55789104 15.70440625 -13.55789104 15.70440625 -14.56640625 11.81640625 C-14.55924701 7.68552335 -14.32093775 5.50728871 -12.0625 1.9375 C-7.89124146 -0.70145948 -4.83193629 -0.82818868 0 0 Z " fill="#8a56ac" transform="translate(639,789)"/>
<path d="M0 0 C3.08032227 1.37353516 3.08032227 1.37353516 6.31640625 3.2890625 C6.89535141 3.62996918 7.47429657 3.97087585 8.07078552 4.32211304 C9.28887561 5.0437974 10.50311681 5.77201365 11.71362305 6.50634766 C13.55067392 7.6178447 15.40163833 8.70260426 17.25585938 9.78515625 C18.44363515 10.49323928 19.63051519 11.20282747 20.81640625 11.9140625 C21.88318604 12.5529541 22.94996582 13.1918457 24.04907227 13.85009766 C27.7997519 16.58266032 31.5378807 19.67813228 32.48046875 24.4140625 C31.91644245 28.67058095 31.50621494 30.49378506 28.375 33.625 C24.25357222 35.30410021 22.31835032 34.93288703 18 34 C14.7902832 32.51293945 14.7902832 32.51293945 11.55078125 30.61328125 C10.97087936 30.27378952 10.39097748 29.93429779 9.79350281 29.58451843 C8.57758017 28.86819657 7.36510209 28.14599799 6.15600586 27.41821289 C4.31696972 26.31518088 2.46361978 25.23985521 0.60742188 24.16601562 C-0.57908348 23.46255162 -1.76466363 22.75752429 -2.94921875 22.05078125 C-4.01487061 21.41825439 -5.08052246 20.78572754 -6.1784668 20.1340332 C-9.36017442 17.72758635 -11.09495016 15.49263917 -13 12 C-13 7.88895975 -12.67305966 5.82504088 -10.0625 2.625 C-6.57765293 -0.12063708 -4.42733202 -0.36296652 0 0 Z " fill="#8a56ac" transform="translate(258,571)"/>
<path d="M0 0 C4.94903484 1.21200853 7.16318008 5.72927383 9.6640625 9.78125 C10.15519531 10.64234375 10.64632813 11.5034375 11.15234375 12.390625 C12.50287013 14.75030302 13.89376484 17.05412406 15.33203125 19.359375 C16.17271221 20.74949404 17.01255589 22.14011977 17.8515625 23.53125 C18.26567383 24.17940674 18.67978516 24.82756348 19.10644531 25.49536133 C21.80375154 30.06987791 22.23295324 33.27848704 21.4831543 38.52880859 C20.9140625 40.46875 20.9140625 40.46875 18.7890625 43.03125 C15.16481313 44.84337469 12.92432826 44.97003322 8.9140625 44.46875 C4.73173843 42.46196463 2.90243702 40.39045647 0.6875 36.35546875 C0.130625 35.35451172 -0.42625 34.35355469 -1 33.32226562 C-1.84691406 31.75508789 -1.84691406 31.75508789 -2.7109375 30.15625 C-3.28328125 29.12306641 -3.855625 28.08988281 -4.4453125 27.02539062 C-6.01284546 24.18378146 -7.55456045 21.32996452 -9.0859375 18.46875 C-9.71242188 17.31117188 -10.33890625 16.15359375 -10.984375 14.9609375 C-12.57146665 11.37028334 -12.1714873 9.20032743 -11.0859375 5.46875 C-7.96137346 1.01861333 -5.30009457 -0.39701083 0 0 Z " fill="#8a56ac" transform="translate(342.0859375,485.53125)"/>
<path d="M0 0 C2.75329021 1.79562405 4.52627461 3.05254922 6 6 C7.15947674 13.4105687 3.36323581 18.76923254 -0.1875 25.0625 C-0.76564453 26.12533203 -1.34378906 27.18816406 -1.93945312 28.28320312 C-9.33917107 41.66958554 -9.33917107 41.66958554 -14 44 C-18.39934481 44.50761671 -20.54225386 44.25800237 -24.4375 42.0625 C-27.4793161 38.42715881 -27.54481006 37.02861969 -27.4074707 32.48999023 C-26.66111441 27.92912273 -24.30691079 24.36207594 -21.875 20.5 C-21.400625 19.70980469 -20.92625 18.91960937 -20.4375 18.10546875 C-18.99011034 15.71531987 -17.50421029 13.35475343 -16 11 C-15.47180664 10.16597656 -14.94361328 9.33195312 -14.39941406 8.47265625 C-13.61775879 7.26416016 -13.61775879 7.26416016 -12.8203125 6.03125 C-12.35125488 5.30486328 -11.88219727 4.57847656 -11.39892578 3.83007812 C-8.14814741 -0.42259809 -5.04478526 -0.52187434 0 0 Z " fill="#8a56ac" transform="translate(578,486)"/>
</svg>
