<?xml version="1.0" encoding="UTF-8"?>
<svg version="1.1" xmlns="http://www.w3.org/2000/svg" width="3104" height="1376">
<path d="M0 0 C11.90900769 0 22.45222883 0.06674085 34 2 C36.70741101 9.34756919 38.10983633 16.59831854 39.375 24.3125 C41.37417141 36.04323909 43.89109854 47.51690864 47 59 C47.62229492 59.12004395 48.24458984 59.24008789 48.88574219 59.36376953 C66.24884535 62.75037112 83.3686107 66.67327551 99.80859375 73.3359375 C102.55950665 74.16954747 104.14288044 74.55061333 107 74 C109.15428065 71.93899128 110.91367621 70.00365669 112.75 67.6875 C113.27513184 67.05030029 113.80026367 66.41310059 114.34130859 65.7565918 C115.90882993 63.84908296 117.45630698 61.9268142 119 60 C120.54032304 58.10307484 122.08184443 56.20712161 123.625 54.3125 C124.33269531 53.43980469 125.04039062 52.56710937 125.76953125 51.66796875 C128.97260085 47.83662631 132.34407289 44.16984085 135.73828125 40.5078125 C137.93037456 38.07720126 139.98235414 35.57630752 142 33 C145.85802289 33.60584476 148.86230997 34.76235829 152.32421875 36.5546875 C153.34427002 37.08167236 154.36432129 37.60865723 155.4152832 38.15161133 C157.03503052 39.00468872 157.03503052 39.00468872 158.6875 39.875 C159.8014917 40.45854248 160.9154834 41.04208496 162.06323242 41.64331055 C171.63002833 46.70614391 180.90334076 52.13833726 190 58 C190.57524414 58.36963867 191.15048828 58.73927734 191.74316406 59.12011719 C194.26378882 60.74899024 196.75687343 62.40801975 199.2265625 64.11328125 C201.18100383 65.4428519 203.18159467 66.70579438 205.2109375 67.91796875 C206.23445312 68.56378906 207.25796875 69.20960938 208.3125 69.875 C209.23675781 70.42929687 210.16101563 70.98359375 211.11328125 71.5546875 C213.26873469 74.34829797 213.29040081 74.98948265 213.08984375 78.390625 C212.05331377 85.16129599 209.63136278 91.48110977 207.25 97.875 C206.60417969 99.65970703 206.60417969 99.65970703 205.9453125 101.48046875 C203.49399937 108.19589244 200.86788204 114.77672817 197.90917969 121.28564453 C196.87581055 124.37076752 196.73602714 126.76633245 197 130 C198.41696838 132.17780412 198.41696838 132.17780412 200.5 133.9375 C201.23734375 134.62328125 201.9746875 135.3090625 202.734375 136.015625 C204.72443922 137.75864676 206.73313492 139.47570695 208.75 141.1875 C215.81650385 147.27216085 221.87011601 154.49684618 228.07421875 161.4375 C228.56623779 161.9838208 229.05825684 162.5301416 229.56518555 163.09301758 C230.92378673 164.60280562 232.2746311 166.11956322 233.625 167.63671875 C236.44113846 170.48634147 236.44113846 170.48634147 240 172 C242.581963 171.38477917 244.83816868 170.68276004 247.30078125 169.74609375 C248.3709272 169.36010765 248.3709272 169.36010765 249.46269226 168.96632385 C251.75140764 168.13751974 254.03186136 167.28824696 256.3125 166.4375 C257.80481433 165.89114417 259.29764919 165.34620789 260.79101562 164.80273438 C263.01269482 163.99388522 265.23435955 163.18502663 267.45510864 162.37362671 C272.38727483 160.57451686 277.32672684 158.80067528 282.29296875 157.09765625 C283.46754639 156.69168213 284.64212402 156.28570801 285.85229492 155.86743164 C288.78978231 155.05793093 290.98249709 154.65109392 294 155 C297.80259381 158.81010881 300.51652786 163.76119245 303.375 168.3125 C303.89102783 169.13282715 304.40705566 169.9531543 304.9387207 170.79833984 C313.48257077 184.4832945 321.64297778 198.43061317 329.3125 212.625 C329.67947998 213.29289551 330.04645996 213.96079102 330.42456055 214.64892578 C332.42429994 218.42409828 333.54874335 221.74903154 334 226 C333.34515625 226.52207031 332.6903125 227.04414062 332.015625 227.58203125 C326.85531995 231.7438027 321.85088559 235.98478014 317 240.5 C312.35873936 244.81783568 307.56440519 248.87419263 302.625 252.8515625 C298.64083135 256.11241482 294.81446578 259.54343471 291 263 C292.21183246 268.95325716 293.80228877 274.6263782 295.75 280.375 C298.44446588 288.60349725 300.49438797 296.92582429 302.375 305.375 C302.63764648 306.54595215 302.90029297 307.7169043 303.17089844 308.92333984 C304.20902787 313.70361237 305.15785053 318.08872159 305 323 C311.9191717 324.29759656 318.85457036 325.49032737 325.796875 326.65625 C327.59765809 326.9596245 329.39843931 327.26301012 331.19921875 327.56640625 C333.98552244 328.0356318 336.77200205 328.50366765 339.55908203 328.96826172 C342.2848076 329.42310614 345.00964172 329.88300354 347.734375 330.34375 C348.56056335 330.48026978 349.38675171 330.61678955 350.23797607 330.75744629 C354.94116272 331.5577062 359.43823305 332.59989901 364 334 C364.92378698 341.53534947 365.14663962 348.96406278 365.1328125 356.55078125 C365.13424759 358.31448311 365.13424759 358.31448311 365.13571167 360.11381531 C365.13638878 362.58881687 365.13456737 365.06382026 365.13037109 367.53881836 C365.12503075 371.29089427 365.13032471 375.04284971 365.13671875 378.79492188 C365.1360576 381.21354193 365.13477569 383.6321619 365.1328125 386.05078125 C365.13483673 387.15537186 365.13686096 388.25996246 365.13894653 389.39802551 C365.07699895 410.38450158 365.07699895 410.38450158 362 415 C359.09712295 415.79469824 356.31628366 416.40949554 353.36328125 416.9375 C352.49164841 417.1037085 351.62001556 417.26991699 350.7219696 417.44116211 C347.92089258 417.97261148 345.11694342 418.48664262 342.3125 419 C340.47308719 419.34518336 338.63389139 419.69152524 336.79492188 420.0390625 C333.2139959 420.71480413 329.63205727 421.38473469 326.04931641 422.05078125 C319.35294454 423.30159944 312.67511016 424.64064867 306 426 C305.81993408 426.93344238 305.81993408 426.93344238 305.63623047 427.88574219 C302.18210773 445.5950262 297.8425078 462.7543319 291.56640625 479.6875 C290.91946865 482.32879005 290.91196049 483.51522139 292 486 C293.68966374 487.90982315 293.68966374 487.90982315 295.875 489.6875 C297.10476563 490.739375 297.10476563 490.739375 298.359375 491.8125 C301.85400812 494.70746235 305.36997009 497.57516968 308.89453125 500.43359375 C313.24106342 503.995038 317.46437525 507.70078831 321.69775391 511.39526367 C322.59953369 512.18187378 322.59953369 512.18187378 323.51953125 512.984375 C324.09912598 513.49677734 324.6787207 514.00917969 325.27587891 514.53710938 C326.97450319 516.01630533 326.97450319 516.01630533 328.78271484 517.29101562 C330.44921875 518.515625 330.44921875 518.515625 333 521 C333.56070043 525.7515927 332.49140829 528.71821852 330.2890625 532.89453125 C329.70882324 534.00634766 329.12858398 535.11816406 328.53076172 536.26367188 C327.89619763 537.44698477 327.26092864 538.62991988 326.625 539.8125 C325.97750566 541.03553125 325.33053667 542.25884076 324.68408203 543.48242188 C315.6536596 560.49428255 305.68413261 576.97380108 295 593 C287.86402648 592.49487492 281.88662379 590.81082957 275.19921875 588.33203125 C273.15048347 587.59674645 271.10165255 586.86172811 269.05273438 586.12695312 C265.85349338 584.96644172 262.65615208 583.80101343 259.46069336 582.63012695 C256.35718846 581.49703364 253.24752846 580.38238184 250.13671875 579.26953125 C249.17940353 578.91236526 248.22208832 578.55519928 247.23576355 578.18721008 C245.89835869 577.71132698 245.89835869 577.71132698 244.53393555 577.22583008 C243.75277878 576.94016678 242.97162201 576.65450348 242.16679382 576.36018372 C239.42306556 575.90409683 238.30779146 576.52140101 236 578 C232.32748018 581.16744134 229.10541486 584.83609847 225.9375 588.5 C203.76610825 614.11694588 203.76610825 614.11694588 196 618 C196.5947961 622.57854675 197.83226923 626.37804957 199.625 630.625 C202.5303015 637.64517537 205.07787238 644.76330153 207.55126953 651.94580078 C207.82696777 652.74614746 208.10266602 653.54649414 208.38671875 654.37109375 C208.65274902 655.15210449 208.9187793 655.93311523 209.19287109 656.73779297 C209.71590585 658.2037458 210.27434786 659.65772945 210.87353516 661.09423828 C212.90212873 665.97023091 213.8109831 669.70955994 213 675 C210.8254437 677.11929852 209.26019424 678.2935814 206.6875 679.75 C206.0181543 680.16064697 205.34880859 680.57129395 204.65917969 680.99438477 C203.20899172 681.883065 201.75178274 682.7603667 200.28857422 683.62744141 C197.97583922 685.01449028 195.70659097 686.45470483 193.44140625 687.91796875 C180.01046971 696.58413408 166.29411599 704.84095117 152.125 712.25 C151.05507813 712.81203125 149.98515625 713.3740625 148.8828125 713.953125 C145.62027952 715.13789307 144.22713549 715.21151598 141 714 C135.3308539 709.69052715 130.93174916 703.59082318 126.5 698.07421875 C123.15878076 693.96556322 119.70704568 689.95713821 116.24902344 685.94677734 C115.29528694 684.840071 114.34308789 683.73203749 113.39257812 682.62255859 C112.44348299 681.516723 111.4888072 680.41565843 110.52929688 679.31884766 C107 675.222431 107 675.222431 107 673 C106.30253662 673.24121582 105.60507324 673.48243164 104.88647461 673.73095703 C68.51201373 686.24760454 68.51201373 686.24760454 54.19970703 688.42626953 C53.29978027 688.56532715 52.39985352 688.70438477 51.47265625 688.84765625 C50.6619165 688.95215088 49.85117676 689.05664551 49.01586914 689.16430664 C46.77579491 689.82943213 46.77579491 689.82943213 45.93685913 692.23187256 C45.03992714 694.88202772 44.45755759 697.36965259 43.99438477 700.12573242 C43.82403214 701.11993698 43.6536795 702.11414154 43.47816467 703.13847351 C43.30103439 704.20008194 43.12390411 705.26169037 42.94140625 706.35546875 C42.551851 708.60879638 42.16186415 710.86204944 41.77148438 713.11523438 C41.16295743 716.6631264 40.55845069 720.21158691 39.96166992 723.76147461 C39.38283011 727.19067995 38.78825754 730.61685929 38.19140625 734.04296875 C38.0163002 735.11064987 37.84119415 736.17833099 37.66078186 737.27836609 C37.48727707 738.26311417 37.31377228 739.24786224 37.13500977 740.26245117 C36.98781998 741.13117355 36.84063019 741.99989594 36.6889801 742.89494324 C36 745 36 745 33 747 C22.07706157 749.57197097 11.22128828 749 0 749 C0 712.37 0 675.74 0 638 C2.84605353 637.28848662 5.13238776 636.82977344 7.9921875 636.60546875 C25.70275564 635.09498037 43.0208631 632.34602542 60 627 C61.175625 626.66613281 62.35125 626.33226562 63.5625 625.98828125 C101.06116092 615.03836489 134.7463704 594.60806759 164 569 C164.51594727 568.54866699 165.03189453 568.09733398 165.56347656 567.63232422 C211.63305698 527.04721766 242.30065307 466.94244624 249 406 C249.0920874 405.23349121 249.1841748 404.46698242 249.27905273 403.67724609 C252.07002511 377.70339894 250.91840534 350.60934489 246 325 C245.82871582 324.08557129 245.65743164 323.17114258 245.48095703 322.22900391 C236.09196853 273.9131428 212.12914868 228.35041364 178 193 C177.3507959 192.32356445 176.7015918 191.64712891 176.03271484 190.95019531 C167.43272138 182.02974275 158.73386356 173.63590476 148.74462891 166.28710938 C146.92369199 164.94370336 145.12359299 163.5752484 143.32421875 162.203125 C101.10587501 130.27106524 51.8060992 116.4757624 0 110 C0 73.7 0 37.4 0 0 Z " fill="#8a56ac" transform="translate(470,323)"/>
<path d="M0 0 C5.29166682 4.53821757 11.53535139 9.94570279 14.6875 16.25 C14.85765625 15.45335937 15.0278125 14.65671875 15.203125 13.8359375 C17.491751 3.82928553 20.82337447 -2.35065441 29.55859375 -7.94921875 C39.46680881 -12.98280394 54.57811995 -12.55928472 65 -9.1875 C73.6160346 -5.24132884 78.18395512 -0.06661831 81.6616993 8.69022179 C83.58865247 15.37721848 83.35612479 22.08474034 83.28686523 28.97973633 C83.2887331 30.63202787 83.29277793 32.28431815 83.29881287 33.93659973 C83.30872519 38.39154538 83.28771684 42.84584702 83.26033282 47.30069947 C83.23634557 51.9861531 83.2394465 56.67159735 83.23902893 61.35710144 C83.23441144 69.22588871 83.21084706 77.09443288 83.17456055 84.96313477 C83.13287686 94.02559547 83.11524747 103.08783744 83.1119408 112.15038854 C83.10832331 121.84406551 83.08942124 131.53766522 83.06482053 141.23130965 C83.05862982 144.0033819 83.05496968 146.77544824 83.05178642 149.54752541 C83.04582578 153.92664209 83.02934932 158.30560715 83.00518227 162.68465996 C82.9978274 164.27962697 82.99367594 165.87461297 82.99320221 167.46959686 C82.98211481 186.44565453 80.9214516 205.89896004 72.6875 223.25 C72.14480469 224.39984375 71.60210938 225.5496875 71.04296875 226.734375 C60.7970557 247.55428545 44.0029669 262.2849071 22.12573242 270.14770508 C11.7736497 273.67047812 1.52446958 275.89808264 -9.3125 277.25 C-10.23289062 277.38019531 -11.15328125 277.51039063 -12.1015625 277.64453125 C-14.84478237 277.97110504 -17.55159006 278.1339667 -20.3125 278.25 C-21.01133301 278.28254883 -21.71016602 278.31509766 -22.43017578 278.34863281 C-50.84251463 279.4997773 -90.53224449 276.95323793 -113.69921875 257.79296875 C-122.00073708 249.85325994 -122.00073708 249.85325994 -122.515625 243.90234375 C-122.69954149 233.25051366 -120.30856546 224.47971041 -113.3125 216.25 C-108.05401204 211.57206697 -103.31030775 209.83178103 -96.375 209.90234375 C-90.09167826 210.615629 -84.20843061 213.05794244 -78.3125 215.25 C-53.47534226 224.36138514 -28.77520737 229.04681941 -3.8046875 218.15625 C3.96194134 214.02192286 8.93807842 205.35355834 11.6875 197.25 C13.62299729 189.83676138 13.93872254 182.75660876 13.8125 175.125 C13.80347656 174.073125 13.79445313 173.02125 13.78515625 171.9375 C13.76185853 169.37475122 13.72915112 166.81250488 13.6875 164.25 C13.11902344 164.90226563 12.55054687 165.55453125 11.96484375 166.2265625 C-0.37347035 180.19213339 -14.34944542 188.91269327 -33.3125 191.25 C-58.58878134 192.63761331 -81.31320069 188.64286829 -101.3125 172.25 C-102.01632813 171.70859375 -102.72015625 171.1671875 -103.4453125 170.609375 C-122.62345953 155.11644054 -131.00696475 129.37891481 -133.80859375 105.75390625 C-137.2482092 71.73993129 -129.1721115 41.0647642 -107.859375 14.15234375 C-82.58272788 -14.65217896 -31.66257427 -24.2240715 0 0 Z " fill="#8a56ac" transform="translate(2660.3125,635.75)"/>
<path d="M0 0 C7.9464701 6.70682077 13.29544108 13.79961687 18 23 C18.30550781 22.47792969 18.61101562 21.95585938 18.92578125 21.41796875 C28.07567925 6.70080887 42.95818226 -5.51659913 59.98413086 -9.77563477 C80.52560781 -14.32713319 103.08455217 -13.90127594 121.578125 -2.73046875 C126.07879935 0.48533566 130.08603852 4.09986877 134 8 C134.56460937 8.54140625 135.12921875 9.0828125 135.7109375 9.640625 C150.55031812 25.18664279 153.1538502 49.66910696 153.14526367 70.03979492 C153.15030159 71.78076195 153.15030159 71.78076195 153.15544128 73.55690002 C153.16488282 77.36476736 153.16689052 81.17259046 153.16796875 84.98046875 C153.17037092 86.96702834 153.17277506 88.95358795 153.17542917 90.94014722 C153.1835374 97.17323616 153.18601649 103.40631068 153.18530273 109.6394043 C153.18470078 116.05378509 153.19528439 122.46808211 153.2110464 128.8824417 C153.22414076 134.40967488 153.22948593 139.9368807 153.22884732 145.46412927 C153.22859318 148.75679779 153.23232828 152.04937492 153.24202538 155.34203148 C153.25182467 159.01088827 153.248948 162.67952838 153.24291992 166.34838867 C153.24853943 167.42959991 153.25415894 168.51081116 153.25994873 169.62478638 C153.22232848 178.63743412 151.89558339 186.79299273 145.46484375 193.6328125 C135.3812034 202.77470056 124.20436529 203.80725346 110.94335938 203.17919922 C103.01703682 202.44830465 95.61765525 198.55381825 90 193 C83.75495031 185.17775663 82.70282993 177.37021497 82.71289062 167.64941406 C82.70605759 166.63218262 82.69922455 165.61495117 82.69218445 164.56689453 C82.67863633 162.36639856 82.6695575 160.16587147 82.66447449 157.96533966 C82.65615347 154.47513511 82.63561692 150.98518821 82.61193848 147.49505615 C82.56379645 140.08007593 82.53082815 132.66506977 82.5 125.25 C82.4642437 116.66737571 82.42216203 108.08487731 82.36405945 99.50237274 C82.34411095 96.07759374 82.33569483 92.65291312 82.32775879 89.22808838 C82.31477442 87.10811007 82.30125238 84.98813496 82.28710938 82.86816406 C82.28809128 81.92753113 82.28907318 80.98689819 82.29008484 80.01776123 C82.18781813 68.93087956 80.53847745 58.22835742 74 49 C68.25032371 44.39829662 62.04808441 42.58455628 54.765625 42.6484375 C49.92992924 43.26314459 46.10844401 45.48642602 42 48 C41.0925 48.53625 40.185 49.0725 39.25 49.625 C27.31704411 62.22089789 27.57155273 78.81868511 27.61987495 95.00772285 C27.62907053 98.37659142 27.61866607 101.7449135 27.60325623 105.11375427 C27.56338378 114.68349481 27.56195363 124.25318816 27.56420898 133.82299805 C27.56426025 139.69841377 27.54501586 145.57353187 27.51487541 151.44886589 C27.50411616 154.75196464 27.51613855 158.05447978 27.52870178 161.3575592 C27.5072052 174.25068165 27.34281843 185.520894 17.91796875 195.34765625 C8.28673348 203.64503409 -3.97248348 203.58458457 -16 203 C-23.65594413 202.14933954 -31.0456648 198.43753306 -36.3125 192.8125 C-42.04855697 185.24339996 -43.59359447 177.42301104 -43.51416016 168.109375 C-43.52128525 167.07059204 -43.52841034 166.03180908 -43.53575134 164.96154785 C-43.55491318 161.55750065 -43.54677468 158.15408263 -43.5390625 154.75 C-43.54897912 152.36685284 -43.56092401 149.98371334 -43.57479858 147.60058594 C-43.60708271 141.34420499 -43.61754539 135.087999 -43.62164307 128.83154297 C-43.63041511 118.81928952 -43.66605972 108.80717927 -43.7138176 98.79504395 C-43.72634356 95.31089851 -43.72564987 91.82693669 -43.72354126 88.34277344 C-43.73012594 86.19205588 -43.73713306 84.04133957 -43.74462891 81.890625 C-43.74050491 80.93240845 -43.73638092 79.97419189 -43.73213196 78.98693848 C-43.79774029 67.91956794 -45.99959907 58.42920146 -52 49 C-54.80996083 46.28963084 -54.80996083 46.28963084 -58 45 C-58.886875 44.5875 -59.77375 44.175 -60.6875 43.75 C-68.78733009 41.91607621 -75.49147748 42.32397613 -82.78125 46.46484375 C-91.77498404 52.687621 -96.07790702 63.51897655 -98 74 C-98.26467344 77.41923245 -98.26064725 80.82066035 -98.23950195 84.2487793 C-98.24151611 85.24343704 -98.24353027 86.23809479 -98.24560547 87.26289368 C-98.24913621 89.41154897 -98.2484022 91.56021469 -98.24382973 93.70886803 C-98.23820593 97.11990076 -98.24744642 100.53059728 -98.2610321 103.94160461 C-98.29802592 113.63613398 -98.31673085 123.33054839 -98.30541992 133.02514648 C-98.29953966 138.96734627 -98.31797066 144.90907216 -98.35130882 150.85117531 C-98.35921713 153.10398852 -98.35804853 155.35685401 -98.34728432 157.60965538 C-98.22043778 185.35505413 -98.22043778 185.35505413 -108 195.5625 C-117.93536594 203.30455616 -129.92875707 204.02277268 -142 203 C-150.51869785 201.62197535 -158.56173191 197.57189977 -163.875 190.625 C-169.37795895 181.56731194 -169.4366857 173.23894923 -169.40405273 162.92041016 C-169.40976135 161.2901513 -169.41672751 159.65989644 -169.42485046 158.02964783 C-169.4427439 153.6183758 -169.44162056 149.2073031 -169.43590808 144.79600573 C-169.43281034 141.10581999 -169.43891527 137.41567221 -169.44494683 133.72549188 C-169.45897826 125.01552996 -169.45744261 116.30566616 -169.44604492 107.59570312 C-169.43456815 98.62745048 -169.44863508 89.65949704 -169.4754414 80.69128382 C-169.4976357 72.9755098 -169.50422729 65.25982944 -169.49836498 57.54402578 C-169.49500275 52.94277681 -169.49736142 48.34171954 -169.51461601 43.74049759 C-169.53014242 39.41143587 -169.52606688 35.08281547 -169.50731087 30.75377083 C-169.50364052 29.17120889 -169.50668782 27.58861384 -169.51719666 26.00608253 C-169.57796833 16.09233417 -168.88837181 7.85023214 -163.28125 -0.5859375 C-155.32844372 -8.57362451 -146.4494649 -10.36013261 -135.5 -10.5 C-125.53746094 -10.39223333 -115.81202476 -8.92061296 -108.39453125 -1.68359375 C-103.32364518 4.43840036 -102.07869238 11.27883347 -101 19 C-100.67128906 18.45472656 -100.34257813 17.90945313 -100.00390625 17.34765625 C-90.81318359 2.77699838 -78.68527061 -5.89063261 -62 -10 C-61.1646875 -10.22558594 -60.329375 -10.45117188 -59.46875 -10.68359375 C-39.5747044 -15.24789219 -16.5299416 -12.45632352 0 0 Z " fill="#8a56ac" transform="translate(1473,635)"/>
<path d="M0 0 C0 17.49 0 34.98 0 53 C-8.415 53.495 -8.415 53.495 -17 54 C-20.6992811 54.52705477 -24.28659289 55.08316134 -27.9375 55.8125 C-28.86731689 55.99208252 -29.79713379 56.17166504 -30.75512695 56.35668945 C-32.63153151 56.72311077 -34.5068281 57.09526075 -36.38085938 57.47363281 C-38.73518599 57.94678048 -41.09278912 58.39404325 -43.453125 58.8359375 C-88.64216155 67.67195696 -129.72619028 90.79415951 -164 121 C-164.91394531 121.79148437 -165.82789063 122.58296875 -166.76953125 123.3984375 C-171.25183775 127.33641593 -175.38995578 131.35887275 -179.234375 135.921875 C-181.20052556 138.23601681 -183.25347972 140.4556948 -185.3125 142.6875 C-232.01466135 194.68415342 -252.92429695 264.93747343 -249.87109375 333.91210938 C-249.52416363 339.98338648 -248.83976766 345.97882327 -248 352 C-247.86529297 353.01610352 -247.73058594 354.03220703 -247.59179688 355.07910156 C-243.97271775 381.32917549 -235.89239116 407.28828058 -224 431 C-223.62552734 431.75845215 -223.25105469 432.5169043 -222.86523438 433.29833984 C-190.57653239 498.2588749 -133.47066264 544.68186653 -65.1328125 567.66015625 C-55.96643007 570.62501134 -46.70020258 572.82970742 -37.25 574.6875 C-35.80814331 574.97306763 -35.80814331 574.97306763 -34.3371582 575.2644043 C-22.93648092 577.38543902 -11.55586154 578.55551731 0 580 C0 597.82 0 615.64 0 634 C-88.94210009 628.44111874 -166.6923295 589.80208101 -226.61669922 524.23095703 C-229.21441119 521.25567624 -231.61941805 518.14976794 -234 515 C-234.74378906 514.07316406 -235.48757812 513.14632812 -236.25390625 512.19140625 C-273.80484139 464.87602249 -295.72280164 408.73819553 -303 349 C-303.1045752 348.17725586 -303.20915039 347.35451172 -303.31689453 346.50683594 C-304.39282526 336.71759858 -304.24391135 326.83564545 -304.25 317 C-304.25067474 316.02090668 -304.25134949 315.04181335 -304.25204468 314.03305054 C-304.18930084 256.59311902 -288.20672862 202.32976255 -259 153 C-258.53916016 152.22043945 -258.07832031 151.44087891 -257.60351562 150.63769531 C-252.00441451 141.24308992 -245.83815622 132.52798066 -239 124 C-238.31035156 123.11699219 -237.62070313 122.23398437 -236.91015625 121.32421875 C-232.18879046 115.31265795 -227.16444748 109.6324233 -222 104 C-221.12085938 103.02804687 -220.24171875 102.05609375 -219.3359375 101.0546875 C-206.91012532 87.34139744 -193.70674336 75.22062021 -179 64 C-178.34273926 63.49694336 -177.68547852 62.99388672 -177.00830078 62.47558594 C-163.98185466 52.5831109 -150.18161294 44.12897296 -136 36 C-135.16355957 35.51901855 -134.32711914 35.03803711 -133.46533203 34.54248047 C-105.5939158 18.70499233 -75.29026365 9.18902048 -43.87011719 3.52001953 C-40.54484254 2.91753272 -37.22828716 2.27386866 -33.91259766 1.62084961 C-21.99503346 -0.36541109 -12.75867551 0 0 0 Z " fill="#8a56ac" transform="translate(444,381)"/>
<path d="M0 0 C0.74137207 0.20898926 1.48274414 0.41797852 2.24658203 0.63330078 C17.8444378 5.20077993 30.89977811 13.18618044 43 24 C43.63164062 24.54914062 44.26328125 25.09828125 44.9140625 25.6640625 C59.53650268 39.21819655 67.79879662 58.91028577 72 78 C72.18618896 78.84159668 72.37237793 79.68319336 72.56420898 80.55029297 C73.98459677 87.5644445 74.35003296 94.35372453 74.3125 101.5 C74.30686035 102.63566406 74.3012207 103.77132812 74.29541016 104.94140625 C73.91585411 131.6080373 66.39125721 158.95352964 48 179 C47.06414063 180.03833984 47.06414063 180.03833984 46.109375 181.09765625 C40.96865389 186.52049011 35.1888876 190.84053083 29 195 C28.13117187 195.598125 27.26234375 196.19625 26.3671875 196.8125 C1.19470177 212.87699232 -34.16498633 216.12667899 -62.875 210.375 C-88.42207036 204.64561736 -112.54341358 191.02743803 -127.28125 168.81640625 C-144.40786203 140.75211698 -150.01033049 108.08502652 -142.76806641 75.68969727 C-136.00358445 48.02913656 -121.02997709 26.51737963 -96.9453125 11.3203125 C-87.74731521 5.76689066 -77.93026271 2.06335313 -67.625 -0.875 C-66.91239014 -1.07843018 -66.19978027 -1.28186035 -65.46557617 -1.49145508 C-44.85390461 -6.98298139 -20.38077936 -5.81099346 0 0 Z " fill="#8a56ac" transform="translate(2259,627)"/>
<path d="M0 0 C0.64156331 -0.00438225 1.28312663 -0.00876451 1.94413126 -0.01327956 C4.09185676 -0.02662363 6.23954126 -0.03283652 8.38729858 -0.03897095 C9.92829573 -0.04687548 11.46929104 -0.05514465 13.01028442 -0.06375122 C18.07001995 -0.08993411 23.12976359 -0.10527668 28.18954468 -0.11953735 C29.93398417 -0.12489886 31.67842361 -0.13027637 33.42286301 -0.13566971 C40.68200527 -0.15729433 47.94114535 -0.17602906 55.20031166 -0.1872921 C65.58895863 -0.20351888 75.97723087 -0.23667044 86.3657366 -0.29369295 C93.67801493 -0.33245547 100.99019331 -0.35193233 108.30257165 -0.35721266 C112.6658806 -0.36085793 117.02878953 -0.37279066 121.39198685 -0.4053154 C125.50105894 -0.43550698 129.60949131 -0.4416688 133.71865082 -0.42993164 C135.22060665 -0.42971182 136.72259314 -0.43794088 138.22444534 -0.45558548 C146.88176965 -0.55169881 154.37024804 -0.15549768 161.58798218 5.15390015 C168.41878359 12.29544612 169.94857127 19.31829505 169.96298218 28.96640015 C169.98747437 29.81782593 170.01196655 30.66925171 170.03720093 31.54647827 C170.07173269 39.10317836 167.74296763 44.56225773 163.90048218 50.96640015 C157.43887422 57.07873199 149.90331501 57.72994264 141.37680054 57.60800171 C140.29283997 57.60858582 139.20887939 57.60916992 138.09207153 57.60977173 C134.53698837 57.60700235 130.98276122 57.57596341 127.42782593 57.54452515 C124.95204628 57.53705871 122.4762607 57.53136768 120.00047302 57.52737427 C113.5050201 57.51214981 107.00992867 57.47289494 100.51461792 57.42855835 C92.71017987 57.38031647 84.9056273 57.36205652 77.10108185 57.33874512 C65.26313105 57.30004265 53.42597241 57.22336513 41.58798218 57.15390015 C41.58798218 76.62390015 41.58798218 96.09390015 41.58798218 116.15390015 C48.76290405 116.11909546 55.93782593 116.08429077 63.33016968 116.0484314 C67.88746953 116.03309492 72.44473737 116.01865245 77.00204468 116.00741577 C84.22867477 115.9895128 91.45519034 115.96837925 98.68173218 115.92758179 C104.51077654 115.89488147 110.33969802 115.87702457 116.16882706 115.86926842 C118.38786883 115.86374406 120.60690422 115.85295648 122.8258934 115.83670998 C125.9444891 115.81479405 129.06258305 115.81193916 132.1812439 115.81332397 C133.08971573 115.80253815 133.99818756 115.79175232 134.93418884 115.78063965 C141.94522675 115.81412074 149.13569169 116.72326311 154.99032593 120.8453064 C162.72604858 130.2738335 163.65130851 140.18842342 162.58798218 152.15390015 C161.26171817 159.85290444 159.23100582 165.68183218 153.17391968 170.78671265 C145.88210507 174.64190164 138.50014877 175.59309285 130.36483765 175.49447632 C129.3977739 175.4949144 128.43071014 175.49535248 127.43434143 175.49580383 C124.2744038 175.49373299 121.1150133 175.47048296 117.95516968 175.4468689 C115.74986053 175.44126688 113.54454763 175.43699964 111.3392334 175.43400574 C105.56228146 175.42260473 99.78555928 175.3931786 94.00869751 175.3598938 C88.10286567 175.32909031 82.19699636 175.3154785 76.29110718 175.30038452 C64.72329843 175.26830417 53.15565949 175.21716559 41.58798218 175.15390015 C41.59797493 176.81188126 41.59797493 176.81188126 41.60816956 178.50335693 C41.66913361 188.94867309 41.71402809 199.39395289 41.74341869 209.83940697 C41.75903693 215.20879947 41.78020481 220.57804769 41.81430054 225.94735718 C41.84703125 231.13450147 41.86486406 236.32150746 41.87261391 241.5087471 C41.87813287 243.4821757 41.88890977 245.45559721 41.90517235 247.42896652 C42.10777949 273.04606181 42.10777949 273.04606181 32.93954468 282.9312439 C24.3312865 291.24084822 15.06877819 292.72486757 3.51107788 292.55429077 C-7.09010783 292.17405496 -14.71145529 289.74772221 -22.41201782 282.15390015 C-29.14547887 274.06031354 -30.86864752 264.20036209 -30.79969788 253.95201111 C-30.80508341 252.97525907 -30.81046895 251.99850703 -30.81601769 250.99215645 C-30.83023187 247.74589095 -30.82320968 244.500037 -30.81607056 241.25375366 C-30.82177751 238.91547317 -30.82874303 236.57719546 -30.83686829 234.23892212 C-30.85477814 227.9062927 -30.85363541 221.57380202 -30.8479259 215.24115491 C-30.84443906 209.27737368 -30.85240309 203.31360943 -30.85928655 197.34983348 C-30.87299163 184.81716341 -30.86758781 172.28455588 -30.85610134 159.75188725 C-30.8461696 148.30444041 -30.85911208 136.85715522 -30.88303553 125.4097333 C-30.90745933 113.63348758 -30.91702645 101.85731705 -30.91038281 90.08104652 C-30.90689804 83.4783574 -30.90941123 76.87577663 -30.92663383 70.27310371 C-30.94212461 64.06366099 -30.93812334 57.85452647 -30.91932869 51.64509583 C-30.91564886 49.37116491 -30.9187335 47.09721105 -30.92921448 44.82330132 C-31.04355606 17.95759394 -31.04355606 17.95759394 -20.56826782 7.0328064 C-14.41145063 1.66789866 -8.02100733 0.03891736 0 0 Z " fill="#8a56ac" transform="translate(1929.4120178222656,545.8460998535156)"/>
<path d="M0 0 C1.60020652 1.50306938 3.18439093 3.02342667 4.75 4.5625 C5.79800781 5.59117187 5.79800781 5.59117187 6.8671875 6.640625 C24.08876207 24.7333298 31.98695749 51.35410233 32.1875 75.8125 C32.19773193 76.77687988 32.20796387 77.74125977 32.21850586 78.73486328 C32.12759764 85.9757346 31.23686032 91.07563968 25.9375 96.375 C19.14501146 101.03651174 12.83993275 100.84075694 4.86962891 100.78955078 C3.08341125 100.78998886 3.08341125 100.78998886 1.2611084 100.79043579 C-1.99056819 100.78928426 -5.24207084 100.77927944 -8.4937129 100.76528788 C-11.89697477 100.75275383 -15.30024034 100.75160791 -18.70352173 100.74923706 C-25.1419775 100.74303013 -31.58036506 100.72663001 -38.01879084 100.70653808 C-45.35130806 100.68415453 -52.68382859 100.67317948 -60.01637149 100.66314721 C-75.09428562 100.64226305 -90.17213597 100.60710244 -105.25 100.5625 C-104.65466531 102.61027706 -104.04993744 104.65532442 -103.44140625 106.69921875 C-102.93782593 108.40791138 -102.93782593 108.40791138 -102.42407227 110.15112305 C-98.52871403 121.46945132 -91.15628509 128.70468146 -80.49609375 133.90625 C-72.18009347 137.37641405 -64.67808043 137.77670612 -55.71459961 137.80273438 C-53.71781407 137.81235396 -51.7211698 137.84351161 -49.72460938 137.875 C-38.20245276 137.92097369 -28.68174842 135.67630808 -18.03149414 131.45214844 C0.86325467 123.9668623 0.86325467 123.9668623 10.91015625 127.2734375 C17.74226721 130.66773466 21.48115962 136.81519938 24.015625 143.72265625 C26.14913332 151.97297832 25.7293355 159.9360563 21.40234375 167.35546875 C11.60029669 180.44803751 -8.17488328 185.47312829 -23.25 189.5625 C-25.12751953 190.07683594 -25.12751953 190.07683594 -27.04296875 190.6015625 C-59.36498549 197.76934652 -98.20281635 193.09609591 -126.54003906 175.66894531 C-150.27718374 160.3096164 -165.86252161 137.60459988 -171.81420898 109.93994141 C-173.35793348 101.70351794 -173.68911943 93.55222699 -173.6875 85.1875 C-173.68889984 84.4912854 -173.69029968 83.7950708 -173.69174194 83.07775879 C-173.64635147 55.45982751 -164.83421107 30.19738264 -146.25 9.5625 C-145.56421875 8.79421875 -144.8784375 8.0259375 -144.171875 7.234375 C-107.46931633 -31.64315011 -40.10928106 -35.04990366 0 0 Z " fill="#8a56ac" transform="translate(1832.25,646.4375)"/>
<path d="M0 0 C0.97839844 0.48984375 1.95679687 0.9796875 2.96484375 1.484375 C11.11892594 5.89198699 17.49262135 11.50186479 24 18 C24.7425 18.73089844 25.485 19.46179688 26.25 20.21484375 C43.65073985 38.4652291 51.09135211 66.03457735 51.25 90.625 C51.270625 91.43195313 51.29125 92.23890625 51.3125 93.0703125 C51.353859 99.43959824 50.21176462 104.05098051 46.3125 109.25 C39.4163876 114.46867966 32.18689231 114.42102473 23.89257812 114.34057617 C22.10592239 114.34123329 22.10592239 114.34123329 20.28317261 114.34190369 C17.03979013 114.34018019 13.79680341 114.3252058 10.55349922 114.30418181 C7.15559761 114.28534097 3.757687 114.28365877 0.35974121 114.28010559 C-6.0645229 114.27080675 -12.4886326 114.24622255 -18.91282892 114.21605712 C-26.23087028 114.18244548 -33.54891928 114.16601016 -40.8670187 114.15097082 C-55.91143161 114.11967083 -70.95570031 114.06695279 -86 114 C-85.38558952 115.90106276 -84.76610373 117.80048562 -84.14453125 119.69921875 C-83.80010986 120.75713623 -83.45568848 121.81505371 -83.10083008 122.9050293 C-79.20061427 133.87043977 -72.72976306 140.62857892 -62.91796875 146.640625 C-53.90475707 150.83955092 -45.62622713 151.46768618 -35.75 151.375 C-33.91888672 151.39240234 -33.91888672 151.39240234 -32.05078125 151.41015625 C-19.85774751 151.37144821 -8.6563631 149.12415101 2.5625 144.375 C11.66908328 140.60460966 21.96864342 137.21418475 31.671875 141.05859375 C38.06638122 145.01760851 41.14899803 150.12171016 44.3125 156.75 C45.94969005 164.48944386 46.18363872 173.04242691 42 180 C30.95509667 195.37423273 7.04772555 200.78556366 -10.40625 204.4921875 C-32.20695075 207.5727213 -54.61029965 207.32632414 -76 202 C-76.6894873 201.82871582 -77.37897461 201.65743164 -78.08935547 201.48095703 C-103.80246608 194.73685319 -126.1293136 178.25787148 -139.92578125 155.66015625 C-143.21483304 150.0275985 -145.6717813 144.08802817 -148 138 C-148.45826172 136.87078125 -148.45826172 136.87078125 -148.92578125 135.71875 C-158.6341993 109.8296352 -156.57868315 77.83321036 -145.75 52.68359375 C-133.43733021 26.29220878 -113.60870049 6.07418752 -86.05126953 -4.2890625 C-58.61124691 -13.79933932 -26.12553485 -13.23389538 0 0 Z " fill="#8a56ac" transform="translate(2930,633)"/>
<path d="M0 0 C0.89140529 -0.00467997 1.78281057 -0.00935994 2.70122814 -0.01418173 C5.67052031 -0.02609115 8.63934747 -0.01669034 11.60864258 -0.00723267 C13.74460112 -0.01130016 15.88055755 -0.01664304 18.01651001 -0.02316284 C23.80569763 -0.03682097 29.59472457 -0.03154391 35.38391495 -0.02202559 C41.4473539 -0.01442126 47.51077925 -0.02147675 53.57421875 -0.02618408 C63.75596584 -0.03163937 73.9376476 -0.02445594 84.11938477 -0.01016235 C95.88463291 0.00616367 107.64972508 0.00087501 119.41496944 -0.01564157 C129.5230413 -0.02926286 139.63106625 -0.03117293 149.73914433 -0.02332556 C155.77333698 -0.01865261 161.80745636 -0.01801388 167.84164429 -0.02793503 C173.51505191 -0.0366117 179.18825877 -0.03056975 184.86164474 -0.01325226 C186.94171185 -0.0092912 189.0217959 -0.01041493 191.10185623 -0.01704025 C193.94524686 -0.02526075 196.78799759 -0.01492789 199.63134766 0 C200.4508147 -0.00669217 201.27028173 -0.01338433 202.11458111 -0.02027929 C209.69389344 0.05668945 216.23841909 1.95861993 221.81567383 7.38095093 C229.15797415 17.03083134 228.82771608 28.07418832 227.42114258 39.61923218 C225.89807157 46.56640122 222.46870215 52.01146044 216.81567383 56.38095093 C208.99239601 60.39211873 200.84516041 59.76210618 192.28442383 59.67391968 C190.68160399 59.66831655 189.07877898 59.66404984 187.47595215 59.66105652 C183.28045179 59.64966407 179.0852686 59.62024598 174.88989258 59.58694458 C170.59957162 59.55612214 166.30919886 59.5425253 162.01879883 59.5274353 C153.61761246 59.49537017 145.21668273 59.44424266 136.81567383 59.38095093 C136.81843921 60.42309439 136.82120459 61.46523785 136.82405376 62.53896141 C136.890691 87.9118619 136.93996944 113.28475102 136.97111034 138.65772057 C136.98657062 150.92796313 137.00764418 163.19814784 137.04199219 175.46835327 C137.07192013 186.16468362 137.09125493 196.86097207 137.09793931 207.55734313 C137.10184579 213.2195089 137.11100926 218.88155479 137.132864 224.5436821 C137.1532827 229.8771591 137.15949671 235.21046726 137.15499687 240.54397964 C137.15581966 242.49743315 137.16175309 244.45089252 137.17329025 246.40431213 C137.25038327 260.1351782 136.71381128 272.13199551 127.81567383 283.38095093 C118.93017176 291.46641737 108.33572697 293.05784504 96.72192383 292.66220093 C86.75454532 291.94454968 77.77534961 289.04605106 71.03051758 281.34188843 C67.24159324 276.07277006 65.32046987 270.64913011 63.81567383 264.38095093 C63.64195535 263.84082493 63.46823687 263.30069893 63.28925419 262.74420547 C62.59443095 259.2769076 62.68203925 255.82823262 62.69541931 252.30715942 C62.69456489 251.48703125 62.69371046 250.66690308 62.69283015 249.82192254 C62.6911814 247.07041768 62.69668684 244.31897362 62.70214844 241.56747437 C62.70243047 239.59646608 62.70227227 237.62545769 62.70170593 235.65444946 C62.70141857 230.29947604 62.7073055 224.94452493 62.71427989 219.58955669 C62.72052353 213.99481506 62.72111803 208.40007295 62.7223053 202.80532837 C62.72541562 192.20899922 62.73362501 181.61268037 62.74365479 171.01635575 C62.75482517 158.95361601 62.76032871 146.89087578 62.76535022 134.82813215 C62.77580785 110.01239937 62.79340154 85.19667572 62.81567383 60.38095093 C61.63415741 60.39094368 61.63415741 60.39094368 60.42877197 60.40113831 C52.95672736 60.46158554 45.48480355 60.50709447 38.01257706 60.53638744 C34.17225855 60.55195419 30.33214434 60.57302493 26.49194336 60.60726929 C22.77661927 60.64018766 19.06149001 60.65787128 15.34603119 60.66558266 C13.93804615 60.67106858 12.53007014 60.6817787 11.12216949 60.6981411 C-11.64613692 60.95190269 -11.64613692 60.95190269 -19.18432617 53.69345093 C-26.27061462 46.70986231 -28.30277015 39.48341145 -28.43432617 29.69345093 C-28.30591786 19.44218703 -26.40281551 13.04013855 -19.61010742 5.29110718 C-13.63410227 0.58536399 -7.31851049 -0.0597665 0 0 Z " fill="#8a56ac" transform="translate(942.184326171875,545.6190490722656)"/>
<path d="M0 0 C5.53334182 4.94468843 7.49751659 11.48773933 8.30395508 18.72949219 C8.43552009 21.51341769 8.45886201 24.27572904 8.4375 27.0625 C8.45748047 27.99126953 8.47746094 28.92003906 8.49804688 29.87695312 C8.49211115 38.33535432 6.10163051 45.89836949 0 52 C-4.80294377 54.8017172 -9.04009191 56.0093001 -14.52734375 56.4296875 C-39.75035243 58.30230221 -39.75035243 58.30230221 -60.4375 71.8359375 C-70.07623819 85.18558989 -70.28643256 100.28039132 -70.27439499 116.04458809 C-70.27341701 118.87572605 -70.28651857 121.7064974 -70.30337524 124.5375824 C-70.34927773 132.57800558 -70.37425079 140.61838545 -70.38085938 148.65893555 C-70.3858971 153.60072429 -70.41024998 158.54212211 -70.44618607 163.483778 C-70.45592072 165.35306378 -70.45835099 167.22240372 -70.45301437 169.09170723 C-70.41830546 181.83891036 -70.59148017 193.50198679 -79.9453125 203.27734375 C-89.87487969 211.60232309 -102.57024914 212.09145225 -115 211 C-123.06759682 209.47295203 -129.73120833 206.41790168 -135 200 C-141.80208941 189.33585472 -142.29995487 178.85592469 -142.29052734 166.57885742 C-142.296519 165.01918722 -142.303326 163.45951997 -142.31088257 161.89985657 C-142.32848457 157.68070201 -142.33323548 153.46162867 -142.33451414 149.24244094 C-142.33593954 146.60168037 -142.34021649 143.96094019 -142.34550858 141.32018471 C-142.36398938 132.0938957 -142.3721816 122.86766433 -142.37060547 113.64135742 C-142.36940447 105.06280595 -142.3905036 96.48450623 -142.4220928 87.90601844 C-142.44830632 80.52229487 -142.45897065 73.13865329 -142.45769465 65.75488359 C-142.45718653 61.35311758 -142.46278659 56.95157553 -142.48405075 52.54985619 C-142.50351913 48.40712039 -142.50349942 44.26482022 -142.48901749 40.12206841 C-142.48693893 38.60925912 -142.49157294 37.09642193 -142.5037384 35.58366013 C-142.58621377 24.60962724 -141.72810926 13.8843183 -133.84765625 5.5 C-126.36396613 -0.57555393 -118.63193903 -2.18077116 -109.3125 -2.1875 C-108.43916016 -2.19974609 -107.56582031 -2.21199219 -106.66601562 -2.22460938 C-97.61605763 -2.24488561 -89.27768856 -0.75735307 -82.3359375 5.5 C-74.94109627 13.36840249 -74.46555148 22.61338588 -74 33 C-73.58041016 32.07380859 -73.58041016 32.07380859 -73.15234375 31.12890625 C-65.77980206 15.5541156 -54.33097686 4.88367758 -38 -1 C-25.74559847 -4.66798413 -11.47151363 -6.97886761 0 0 Z " fill="#8a56ac" transform="translate(2508,627)"/>
<path d="M0 0 C6.97514596 3.52143291 11.18464894 7.65069001 14 15 C16.56029451 22.79078959 16.28931491 30.61938311 16.2746582 38.72827148 C16.27901045 40.32074217 16.2841953 41.91321076 16.29014587 43.50567627 C16.3034912 47.81354445 16.30411959 52.12132466 16.30158257 56.42920947 C16.30050994 60.03249565 16.30540363 63.63576424 16.310188 67.23904663 C16.32126748 75.74279262 16.3217292 84.24649443 16.31567383 92.75024414 C16.30963308 101.5082927 16.3219512 110.26618065 16.3432439 119.02420181 C16.36088383 126.55820976 16.36685753 134.0921667 16.36360615 141.62619454 C16.36179716 146.11951288 16.36439123 150.61271661 16.37832069 155.10601616 C16.39093362 159.33240944 16.38892233 163.55855299 16.37590981 167.78494263 C16.3735521 169.33083749 16.37624967 170.87675012 16.38453293 172.42262459 C16.43407648 182.39197332 16.45486251 191.91104479 9.5 199.75 C8.9121875 200.44609375 8.324375 201.1421875 7.71875 201.859375 C-0.46314691 208.30144326 -8.72318324 209.86706607 -18.9375 209.6875 C-20.08250977 209.67460938 -21.22751953 209.66171875 -22.40722656 209.6484375 C-31.94373697 209.35408394 -39.02202677 208.08904363 -45.92578125 201.03125 C-51.82777462 193.70658042 -54.11330316 186.64054513 -54.14717102 177.32260132 C-54.15084771 176.66455494 -54.1545244 176.00650855 -54.1583125 175.32852137 C-54.16929561 173.13095283 -54.17318401 170.93343166 -54.17700195 168.73583984 C-54.18327073 167.15690971 -54.1899179 165.57798103 -54.19691467 163.99905396 C-54.21791047 158.81969216 -54.22831376 153.64033023 -54.23828125 148.4609375 C-54.24233066 146.67410899 -54.24644764 144.88728063 -54.25063133 143.10045242 C-54.26967418 134.70323864 -54.28390639 126.3060336 -54.2922433 117.90880239 C-54.30200874 108.23389249 -54.32831394 98.55921179 -54.36874419 88.88438261 C-54.39896318 81.39457333 -54.4137177 73.90482954 -54.41702431 66.4149605 C-54.41936843 61.94718467 -54.42824522 57.47965395 -54.45348549 53.01194382 C-54.47687238 48.80442757 -54.48095714 44.59731599 -54.47072411 40.38975143 C-54.47023118 38.85274911 -54.4764791 37.31572614 -54.49028015 35.77878571 C-54.58970279 24.04195535 -53.47664385 13.58387566 -45.0703125 4.72265625 C-33.55909301 -4.85554714 -13.4294529 -6.58991741 0 0 Z " fill="#8a56ac" transform="translate(1245,628)"/>
<path d="M0 0 C4.45528921 2.41328166 6.18719753 5.33960569 8 10 C8.41087005 13.89529543 8.34501166 17.76440524 8.28955078 21.67749023 C8.2852858 22.84730438 8.28102081 24.01711853 8.27662659 25.22238159 C8.26633672 27.75799689 8.24964915 30.29359251 8.22729874 32.82913017 C8.19503354 36.8432995 8.18549551 40.85684683 8.18502808 44.87110901 C8.18007758 56.2825849 8.15088912 67.69360839 8.05859375 79.10473633 C8.00780811 85.41414926 7.98922686 91.72281077 8.0061816 98.03241497 C8.01369396 101.36764727 7.99928951 104.69938869 7.95492935 108.03457451 C7.90684632 111.75532509 7.91423529 115.47219425 7.93408203 119.19311523 C7.90636215 120.2899614 7.87864227 121.38680756 7.8500824 122.51689148 C7.92530107 128.38765346 7.92530107 128.38765346 10.99917221 133.18629646 C13.37971994 135.08268799 13.37971994 135.08268799 15.85815239 136.61375523 C18.60860406 138.3939002 19.95331584 140.39043278 21.5 143.25 C21.9640625 144.08015625 22.428125 144.9103125 22.90625 145.765625 C24.57909057 149.18299932 25.06184621 150.66286272 24.359375 154.4921875 C23.32335685 160.91684064 23.07143268 166.25030191 26.94384766 171.77148438 C32.04410027 177.53899412 37.74267693 182.62875688 43.5090332 187.71606445 C46.23247055 190.21314927 48.56235014 192.86616276 50.93774414 195.68652344 C53.72140792 198.80928867 56.68737065 201.72635086 59.66796875 204.66015625 C60.27431656 205.25854309 60.88066437 205.85692993 61.50538635 206.47344971 C64.03845884 208.97036767 66.57444433 211.46416077 69.11987305 213.94848633 C70.99695446 215.78302089 72.86426865 217.62706224 74.73046875 219.47265625 C75.30033005 220.02389664 75.87019135 220.57513702 76.45732117 221.14308167 C80.72746199 225.38578955 84.40923625 229.79858174 85.53125 235.87890625 C85.46372485 241.67762832 85.24672391 245.64438573 81 250 C76.27842491 252.67258967 72.3902427 253.85109095 67 253 C60.32009288 249.05588964 54.91261098 243.18977074 49.49609375 237.7265625 C48.6139772 236.84398773 47.73186066 235.96141296 46.82301331 235.05209351 C44.49584248 232.72115101 42.17332087 230.38569964 39.85266113 228.04827881 C37.50643333 225.68859253 35.15189681 223.33723901 32.79882812 220.984375 C30.98911138 219.16974139 29.17985127 217.35465223 27.37109375 215.5390625 C26.53549423 214.70235016 25.69989471 213.86563782 24.838974 213.00357056 C13.74547689 201.82099249 13.74547689 201.82099249 9.47727966 195.88076782 C7.79498486 193.54101073 6.57207716 192.34687891 4 191 C0.46503837 190.79291592 -2.91592865 190.87463673 -6.44433594 191.04907227 C-15.46257852 191.35379559 -22.29032468 187.74242144 -28.9375 181.75 C-35.22424871 174.86378136 -38.44147638 166.33620875 -38.34375 157.11328125 C-37.42247857 148.76949339 -33.36285392 140.54044423 -27 135 C-25.98910309 134.54522781 -24.97820618 134.09045563 -23.93667603 133.62190247 C-20.61224292 130.65380545 -20.54532929 130.18978345 -20.26742554 125.97245789 C-20.24444 123.83160165 -20.25471242 121.69024059 -20.29052734 119.54956055 C-20.2842205 117.7952774 -20.2842205 117.7952774 -20.27778625 116.0055542 C-20.27006434 112.13208765 -20.30370251 108.2600406 -20.3359375 104.38671875 C-20.33857626 101.69633054 -20.33102077 99.00600349 -20.32315063 96.31562805 C-20.30630473 88.49866004 -20.33438218 80.6821583 -20.36656952 72.86526489 C-20.40504417 62.92647806 -20.42112554 52.98777039 -20.40136492 43.0489257 C-20.39380236 38.41192336 -20.41951609 33.77577014 -20.45175171 29.13883972 C-20.45243669 26.70543423 -20.45213339 24.2720282 -20.45068359 21.83862305 C-20.46514023 20.7386348 -20.47959686 19.63864655 -20.49449158 18.50532532 C-20.46163311 12.09921839 -19.80375516 8.21688085 -16 3 C-11.59654201 -1.13658175 -5.69539799 -0.76338919 0 0 Z " fill="#8a56ac" transform="translate(463,538)"/>
<path d="M0 0 C12.59650662 10.2221651 16.88415823 24.54778848 18.8125 40.25 C19.89433066 57.80894377 18.26246953 77.98451007 6.375 91.75 C-1.85686104 100.21202821 -9.82898852 103.31764953 -21.5625 103.75 C-30.99865364 103.5403077 -39.73931376 100.63960221 -46.66796875 94.03125 C-60.67996849 77.60587242 -61.50622308 55.74985666 -60.1875 35.25 C-58.63520006 22.68511247 -53.92930076 9.73772566 -44.1875 1.25 C-30.9142412 -7.50348533 -13.49043539 -9.48387751 0 0 Z " fill="#ffffff" transform="translate(2244.1875,681.75)"/>
<path d="M0 0 C1.2055957 -0.02416992 1.2055957 -0.02416992 2.43554688 -0.04882812 C12.05260753 -0.0565651 19.06590124 2.8126557 26.390625 9 C30.02718234 12.66129583 32.41287858 16.71035898 34.6875 21.3125 C35.00332031 21.94285156 35.31914062 22.57320312 35.64453125 23.22265625 C41.91950135 36.79266548 42.50596903 56.39464979 37.84228516 70.51196289 C35.40782735 76.71853457 32.35358726 82.49989309 27.6875 87.3125 C27.09195313 87.93511719 26.49640625 88.55773437 25.8828125 89.19921875 C17.66431755 97.07115066 9.39136383 98.9115292 -1.69433594 98.78540039 C-7.86617221 98.54667842 -12.9466954 97.50999995 -18.3125 94.3125 C-19.01503906 93.9 -19.71757812 93.4875 -20.44140625 93.0625 C-30.1881294 86.55235475 -35.51616956 76.11348847 -37.92138672 64.85302734 C-38.70321999 59.77452736 -38.7854797 54.69293202 -38.8125 49.5625 C-38.81886475 48.53374756 -38.82522949 47.50499512 -38.83178711 46.44506836 C-38.5977062 32.29730887 -34.51092929 18.51092929 -24.3125 8.3125 C-16.45413238 2.25074802 -9.86590489 -0.03899567 0 0 Z " fill="#ffffff" transform="translate(2634.3125,676.6875)"/>
<path d="M0 0 C2.0914767 -0.00965706 4.18194875 -0.04069595 6.27319336 -0.07226562 C17.94863435 -0.16712358 27.13803625 0.97651622 35.78686523 9.32617188 C42.6116018 18.61678041 42.92432826 31.90083334 41.60717773 42.91992188 C40.49213168 49.58992466 38.51785864 55.57585544 33.73999023 60.49023438 C23.56433172 66.82175523 14.33421747 67.42141371 2.55249023 67.42773438 C1.35881836 67.43998047 0.16514648 67.45222656 -1.06469727 67.46484375 C-10.87742804 67.48112594 -21.38204397 66.78940193 -28.80297852 59.55273438 C-36.96899304 49.55188696 -37.03965528 37.56846126 -36.07250977 25.24023438 C-35.02229385 17.79245317 -32.59116794 11.49666689 -27.07250977 6.24023438 C-18.43339904 0.13038711 -10.27316703 0.02863933 0 0 Z " fill="#8a56ac" transform="translate(1223.072509765625,528.759765625)"/>
<path d="M0 0 C10.18847294 6.78618505 16.23401075 14.97707705 19.5390625 26.81640625 C20.1640625 30.44140625 20.1640625 30.44140625 20.1640625 36.44140625 C-5.5759375 36.44140625 -31.3159375 36.44140625 -57.8359375 36.44140625 C-56.52752959 24.66573504 -52.08646696 13.38098243 -42.8359375 5.44140625 C-39.62010174 3.18981638 -36.33995608 1.21031595 -32.8359375 -0.55859375 C-32.11019531 -0.935 -31.38445312 -1.31140625 -30.63671875 -1.69921875 C-21.79439304 -4.41234519 -8.28184872 -4.19945333 0 0 Z " fill="#ffffff" transform="translate(1783.8359375,672.55859375)"/>
<path d="M0 0 C2.04291182 1.26660533 4.04690112 2.59886384 6 4 C6.825 4.53625 7.65 5.0725 8.5 5.625 C14.64948728 11.46701291 18.58164857 19.66407493 20 28 C20 30.64 20 33.28 20 36 C-5.74 36 -31.48 36 -58 36 C-56.37912114 23.03296912 -50.4134334 11.28341294 -40 3 C-29.06286945 -5.13089311 -12.14539849 -6.29761403 0 0 Z " fill="#ffffff" transform="translate(2901,673)"/>
<path d="M0 0 C1.83704312 -0.01653825 3.67402246 -0.04380029 5.51074219 -0.08203125 C8.16391264 -0.13695737 10.81557491 -0.15869864 13.46923828 -0.17333984 C14.69299164 -0.2073439 14.69299164 -0.2073439 15.94146729 -0.24203491 C20.1088476 -0.22668774 22.72005803 0.08879864 26.01904297 2.7578125 C29.40329866 6.27111197 29.91634115 8.33007774 29.87158203 13.24462891 C29.23658101 17.00578881 27.23989009 18.75300814 24.51611328 21.35009766 C18.65627144 23.30337827 11.959908 22.65716945 5.8112793 22.70019531 C4.07806971 22.71674689 2.34492817 22.74402675 0.61206055 22.78222656 C-1.89553992 22.83717065 -4.40154557 22.85889372 -6.90966797 22.87353516 C-8.06309441 22.90753922 -8.06309441 22.90753922 -9.23982239 22.94223022 C-13.2950139 22.92641179 -15.75332181 22.53523473 -18.95727539 19.94238281 C-22.68293173 16.11988605 -22.81838292 13.76952585 -22.77685547 8.61181641 C-22.34732871 5.29586986 -20.87464318 3.60022138 -18.48388672 1.35009766 C-13.45506543 -1.16431299 -5.59586181 0.0369265 0 0 Z " fill="#8a56ac" transform="translate(671.48388671875,685.64990234375)"/>
<path d="M0 0 C1.78854404 -0.01653657 3.57702261 -0.04379646 5.36523438 -0.08203125 C7.94891511 -0.13697269 10.53104709 -0.15870078 13.11523438 -0.17333984 C13.90919617 -0.19600922 14.70315796 -0.21867859 15.5211792 -0.24203491 C19.63726345 -0.22647409 22.17717231 0.12363296 25.43261719 2.7578125 C28.83295155 6.26858168 29.34366602 8.32142825 29.29882812 13.24462891 C28.6638271 17.00578881 26.66713619 18.75300814 23.94335938 21.35009766 C18.08351754 23.30337827 11.38715409 22.65716945 5.23852539 22.70019531 C3.50531581 22.71674689 1.77217426 22.74402675 0.03930664 22.78222656 C-2.46829383 22.83717065 -4.97429947 22.85889372 -7.48242188 22.87353516 C-8.63584831 22.90753922 -8.63584831 22.90753922 -9.81257629 22.94223022 C-13.8677678 22.92641179 -16.32607572 22.53523473 -19.5300293 19.94238281 C-22.9503519 16.43315628 -23.4519613 14.38911045 -23.41601562 9.45556641 C-22.78082249 5.73416313 -20.71685046 3.94696916 -18.05664062 1.35009766 C-13.11949386 -1.11847573 -5.49176836 0.03721528 0 0 Z " fill="#8a56ac" transform="translate(236.056640625,685.64990234375)"/>
<path d="M0 0 C5.5 3 5.5 3 7 6 C7.12355235 8.85836493 7.188432 11.69137464 7.203125 14.55078125 C7.20882507 15.40173874 7.21452515 16.25269623 7.22039795 17.12944031 C7.22985298 18.93255366 7.23638392 20.73568433 7.24023438 22.53881836 C7.24992487 25.29116198 7.28093675 28.04275408 7.3125 30.79492188 C7.31903163 32.54687057 7.32428147 34.2988246 7.328125 36.05078125 C7.3404718 36.87177811 7.3528186 37.69277496 7.36553955 38.53865051 C7.34747101 43.19848586 6.98925368 46.19453493 4 50 C0.57234748 52.57073939 -2.83971296 52.43037452 -7 52 C-10.6266863 50.22087087 -12.52526721 49.09748421 -14.14477539 45.35351562 C-15.12157096 41.52329469 -15.34167373 37.89561869 -15.37109375 33.96875 C-15.38012222 33.21460815 -15.3891507 32.46046631 -15.39845276 31.68347168 C-15.4128914 30.09680108 -15.42182602 28.5100718 -15.42553711 26.92333984 C-15.43746808 24.50646582 -15.48673827 22.09212019 -15.53710938 19.67578125 C-15.54657163 18.12761652 -15.55380761 16.57943625 -15.55859375 15.03125 C-15.57812607 14.31545776 -15.59765839 13.59966553 -15.61778259 12.86218262 C-15.56681123 7.15170087 -13.90243667 4.85792777 -10 1 C-6.78918322 -0.60540839 -3.48289645 -0.48463309 0 0 Z " fill="#8a56ac" transform="translate(461,454)"/>
<path d="M0 0 C3.98066095 1.57724302 5.60667274 2.41000911 8 6 C8.23251956 8.9030669 8.35206324 11.70772431 8.37109375 14.61328125 C8.38463646 15.88403755 8.38463646 15.88403755 8.39845276 17.1804657 C8.41295891 18.97338324 8.42184291 20.76635376 8.42553711 22.55932617 C8.43741275 25.2924211 8.48657383 28.02324242 8.53710938 30.75585938 C8.54657642 32.49998901 8.55381011 34.24413248 8.55859375 35.98828125 C8.57812607 36.80097977 8.59765839 37.61367828 8.61778259 38.45100403 C8.58513914 42.59028578 8.24693628 45.22372033 5.62133789 48.51782227 C3 51 3 51 0.5 51.7265625 C-3.67314418 51.55702852 -6.33051859 51.39053082 -10 49.25 C-13.97492764 44.77820641 -14.31796891 41.02629549 -14.3359375 35.1640625 C-14.3425943 34.40709076 -14.3492511 33.65011902 -14.35610962 32.87020874 C-14.36621599 31.27157005 -14.37092726 29.67288935 -14.37060547 28.07421875 C-14.37497325 25.63991048 -14.41129544 23.20742457 -14.44921875 20.7734375 C-14.45508865 19.216152 -14.45905688 17.65885793 -14.4609375 16.1015625 C-14.47530853 15.37949615 -14.48967957 14.65742981 -14.50448608 13.91348267 C-14.45874891 8.80431816 -13.23200271 5.92065834 -10 2 C-6.25816125 -0.49455917 -4.43756964 -0.37606522 0 0 Z " fill="#8a56ac" transform="translate(460,889)"/>
<path d="M0 0 C4.4121773 0.77406619 6.63323987 2.37837191 9.5625 5.625 C12.04391111 9.19931045 14.26702652 12.89306102 16.42382812 16.67114258 C17.43617304 18.43518774 18.47822384 20.17910645 19.5234375 21.92382812 C25.72793686 32.66475211 25.72793686 32.66475211 24.5625 39.625 C22.76886089 42.4350346 21.54369065 44.13440468 18.5625 45.625 C14.77427446 45.98237977 12.41292721 46.15857449 9.140625 44.10546875 C5.86510886 40.9540252 3.84243047 37.56429718 1.625 33.625 C1.19405029 32.87041504 0.76310059 32.11583008 0.3190918 31.33837891 C-0.94565256 29.10736892 -2.1923061 26.86696242 -3.4375 24.625 C-3.78619141 24.01366211 -4.13488281 23.40232422 -4.49414062 22.77246094 C-7.19200343 18.02784886 -9.36284793 14.19269339 -9.625 8.6875 C-7.64143596 3.57199274 -5.50014332 1.00002606 0 0 Z " fill="#8a56ac" transform="translate(559.4375,863.375)"/>
<path d="M0 0 C3.125 2.0625 3.125 2.0625 5 5 C5.52335168 8.66346179 5.42476319 11.00350233 3.97265625 14.41015625 C1.21357908 18.03246945 -2.11624351 19.7637363 -6.0625 21.9375 C-7.60592563 22.80908727 -9.14889686 23.68147972 -10.69140625 24.5546875 C-11.43535645 24.97202148 -12.17930664 25.38935547 -12.94580078 25.81933594 C-15.52862377 27.30382987 -18.00734024 28.93222964 -20.5 30.5625 C-24.77587725 33.11200092 -28.95726862 34.80564347 -34 34 C-37 31.625 -37 31.625 -39 29 C-39.33 28.67 -39.66 28.34 -40 28 C-40.61400736 23.61423315 -40.27313576 21.46091659 -38 17.625 C-33.54126556 12.88892801 -27.52242756 10.10717288 -21.84375 7.08984375 C-18.94636137 5.54869438 -16.28707777 3.86314232 -13.625 1.9375 C-9.3373535 -0.79100232 -4.91851784 -1.03769759 0 0 Z " fill="#8a56ac" transform="translate(285,789)"/>
<path d="M0 0 C4.10007872 0.38679988 6.11398775 1.78344381 9.3125 4.3125 C10.89148053 7.47046107 11.13178171 10.91920636 10.3125 14.3125 C6.72316527 18.61422178 2.41998991 21.38035851 -2.3125 24.25 C-3.36993408 24.89751221 -3.36993408 24.89751221 -4.44873047 25.55810547 C-6.52233931 26.81983013 -8.60353829 28.06796873 -10.6875 29.3125 C-11.7703125 29.96605469 -12.853125 30.61960937 -13.96875 31.29296875 C-22.04685471 35.96451007 -22.04685471 35.96451007 -27.6875 35.3125 C-30.99132019 33.13714514 -33.09224858 30.03435722 -34.37890625 26.3125 C-34.67010879 23.94590159 -34.47375785 22.5697527 -33.6875 20.3125 C-28.06403216 14.60781797 -20.63642754 10.77641801 -13.6875 6.9375 C-11.81181379 5.88924776 -9.93677627 4.83983364 -8.0625 3.7890625 C-6.83660156 3.109646 -6.83660156 3.109646 -5.5859375 2.41650391 C-1.78806182 0.20791417 -1.78806182 0.20791417 0 0 Z " fill="#8a56ac" transform="translate(658.6875,570.6875)"/>
<path d="M0 0 C0.74636719 0.103125 1.49273437 0.20625 2.26171875 0.3125 C4.71208149 1.13395494 5.65564126 2.03142429 7.3125 4 C8.82472208 8.00423044 8.79746345 11.65046122 7.35498047 15.66455078 C5.93093135 18.54181567 4.38204225 21.29809781 2.75 24.0625 C2.22341797 25.00416016 1.69683594 25.94582031 1.15429688 26.91601562 C-7.85600411 42.76399912 -7.85600411 42.76399912 -13.6875 45 C-17.96335689 44.92225715 -20.14195271 44.39465123 -23.625 41.875 C-26.2544401 38.20971987 -26.07106385 36.44922386 -25.6875 32 C-24.40576172 28.80615234 -24.40576172 28.80615234 -22.6171875 25.5859375 C-22.29847687 25.00840729 -21.97976624 24.43087708 -21.65139771 23.83584595 C-20.9776043 22.62350985 -20.29647131 21.41522654 -19.60839844 20.2109375 C-18.56714936 18.38316133 -17.55580528 16.54108456 -16.546875 14.6953125 C-7.66705619 -1.28453297 -7.66705619 -1.28453297 0 0 Z " fill="#8a56ac" transform="translate(355.6875,864)"/>
<path d="M0 0 C3.93204888 1.643368 7.45816864 3.80081304 11.0625 6.0625 C12.00416016 6.62388672 12.94582031 7.18527344 13.91601562 7.76367188 C29.0603912 16.98519493 29.0603912 16.98519493 30.63208008 22.02807617 C30.83737961 25.67883747 30.07372288 27.88450082 28.125 30.9375 C25.44994307 33.53387878 24.56242988 33.94396455 20.82421875 34.31640625 C16.32060719 33.94378875 13.48941665 32.36139733 9.8125 29.9375 C8.50060876 29.10841096 7.18809978 28.28029865 5.875 27.453125 C5.22660156 27.03869141 4.57820312 26.62425781 3.91015625 26.19726562 C0.18363358 23.86152084 -3.6753793 21.75445558 -7.51171875 19.60546875 C-13.55789104 15.70440625 -13.55789104 15.70440625 -14.56640625 11.81640625 C-14.55924701 7.68552335 -14.32093775 5.50728871 -12.0625 1.9375 C-7.89124146 -0.70145948 -4.83193629 -0.82818868 0 0 Z " fill="#8a56ac" transform="translate(639,789)"/>
<path d="M0 0 C3.08032227 1.37353516 3.08032227 1.37353516 6.31640625 3.2890625 C6.89535141 3.62996918 7.47429657 3.97087585 8.07078552 4.32211304 C9.28887561 5.0437974 10.50311681 5.77201365 11.71362305 6.50634766 C13.55067392 7.6178447 15.40163833 8.70260426 17.25585938 9.78515625 C18.44363515 10.49323928 19.63051519 11.20282747 20.81640625 11.9140625 C21.88318604 12.5529541 22.94996582 13.1918457 24.04907227 13.85009766 C27.7997519 16.58266032 31.5378807 19.67813228 32.48046875 24.4140625 C31.91644245 28.67058095 31.50621494 30.49378506 28.375 33.625 C24.25357222 35.30410021 22.31835032 34.93288703 18 34 C14.7902832 32.51293945 14.7902832 32.51293945 11.55078125 30.61328125 C10.97087936 30.27378952 10.39097748 29.93429779 9.79350281 29.58451843 C8.57758017 28.86819657 7.36510209 28.14599799 6.15600586 27.41821289 C4.31696972 26.31518088 2.46361978 25.23985521 0.60742188 24.16601562 C-0.57908348 23.46255162 -1.76466363 22.75752429 -2.94921875 22.05078125 C-4.01487061 21.41825439 -5.08052246 20.78572754 -6.1784668 20.1340332 C-9.36017442 17.72758635 -11.09495016 15.49263917 -13 12 C-13 7.88895975 -12.67305966 5.82504088 -10.0625 2.625 C-6.57765293 -0.12063708 -4.42733202 -0.36296652 0 0 Z " fill="#8a56ac" transform="translate(258,571)"/>
<path d="M0 0 C4.94903484 1.21200853 7.16318008 5.72927383 9.6640625 9.78125 C10.15519531 10.64234375 10.64632813 11.5034375 11.15234375 12.390625 C12.50287013 14.75030302 13.89376484 17.05412406 15.33203125 19.359375 C16.17271221 20.74949404 17.01255589 22.14011977 17.8515625 23.53125 C18.26567383 24.17940674 18.67978516 24.82756348 19.10644531 25.49536133 C21.80375154 30.06987791 22.23295324 33.27848704 21.4831543 38.52880859 C20.9140625 40.46875 20.9140625 40.46875 18.7890625 43.03125 C15.16481313 44.84337469 12.92432826 44.97003322 8.9140625 44.46875 C4.73173843 42.46196463 2.90243702 40.39045647 0.6875 36.35546875 C0.130625 35.35451172 -0.42625 34.35355469 -1 33.32226562 C-1.84691406 31.75508789 -1.84691406 31.75508789 -2.7109375 30.15625 C-3.28328125 29.12306641 -3.855625 28.08988281 -4.4453125 27.02539062 C-6.01284546 24.18378146 -7.55456045 21.32996452 -9.0859375 18.46875 C-9.71242188 17.31117188 -10.33890625 16.15359375 -10.984375 14.9609375 C-12.57146665 11.37028334 -12.1714873 9.20032743 -11.0859375 5.46875 C-7.96137346 1.01861333 -5.30009457 -0.39701083 0 0 Z " fill="#8a56ac" transform="translate(342.0859375,485.53125)"/>
<path d="M0 0 C2.75329021 1.79562405 4.52627461 3.05254922 6 6 C7.15947674 13.4105687 3.36323581 18.76923254 -0.1875 25.0625 C-0.76564453 26.12533203 -1.34378906 27.18816406 -1.93945312 28.28320312 C-9.33917107 41.66958554 -9.33917107 41.66958554 -14 44 C-18.39934481 44.50761671 -20.54225386 44.25800237 -24.4375 42.0625 C-27.4793161 38.42715881 -27.54481006 37.02861969 -27.4074707 32.48999023 C-26.66111441 27.92912273 -24.30691079 24.36207594 -21.875 20.5 C-21.400625 19.70980469 -20.92625 18.91960937 -20.4375 18.10546875 C-18.99011034 15.71531987 -17.50421029 13.35475343 -16 11 C-15.47180664 10.16597656 -14.94361328 9.33195312 -14.39941406 8.47265625 C-13.61775879 7.26416016 -13.61775879 7.26416016 -12.8203125 6.03125 C-12.35125488 5.30486328 -11.88219727 4.57847656 -11.39892578 3.83007812 C-8.14814741 -0.42259809 -5.04478526 -0.52187434 0 0 Z " fill="#8a56ac" transform="translate(578,486)"/>
</svg>
